<mxfile host="app.diagrams.net" modified="2023-06-12T18:47:59.458Z" agent="Mozilla/5.0 (Windows NT 10.0; Win64; x64) AppleWebKit/537.36 (KHTML, like Gecko) Chrome/114.0.0.0 Safari/537.36" etag="qg8imXmiwF4Dj-DK1j31" version="21.3.8" type="github">
  <diagram name="Page-1" id="6oEthc3T-bY6DImMUVZB">
    <mxGraphModel dx="1290" dy="623" grid="1" gridSize="10" guides="1" tooltips="1" connect="1" arrows="1" fold="1" page="1" pageScale="1" pageWidth="850" pageHeight="1100" math="0" shadow="0">
      <root>
        <mxCell id="0" />
        <mxCell id="1" parent="0" />
        <mxCell id="UpKuaX4kH1bP3X0iJl6V-5" value="" style="shape=image;verticalLabelPosition=bottom;labelBackgroundColor=default;verticalAlign=top;aspect=fixed;imageAspect=0;image=data:image/png,iVBORw0KGgoAAAANSUhEUgAAA3cAAAMXCAYAAACZx6xMAAAAAXNSR0IArs4c6QAAAARnQU1BAACxjwv8YQUAAAAJcEhZcwAAEnQAABJ0Ad5mH3gAAICUSURBVHhe7f0PcCPnfef5f5GLEq110oKakXfgxIroi0sEZxVLTF1qh05WIaibrGcjq0aju9TGd6sjAU92bV/9RIJbkZ0p1ZRqYnvriKGrLvbmxgTnnDr76rcrakqRd3yeEsFV/lC/y9WO7NMOwSmnzIm8MSYajYDIsUuJcsHvebqfBp5uACRIgpzGw/dL1Ro83c1Go0E0+4PnTyceOfpEXfrc9//8z+Q97/kvTQkAAABAr/3oR38l7/upnzElxNGPmX/72o/9mBMvAwAAAIgtrrnjz4l36Cd+4nbzCAAAAMBu4Jo7/qi5AwAAALAprrnjj3cIAAAAABzgxIAqtepN8wgAAAD97p6DB+XgPQdNqalcXjOPcKskBw6YR4gjwh0AAABiI50eklO/9RlTCvtf/9cvyx/84R+aEm4Fwl28Ee4AAABwy/3jX/ol+ccP/5Kkh4bkxo03VZA75y9I+P88/vhxuefgPfLmmzfkD/7gjwh5twjhLt7ocwcAAIBbSge73/iNj8vBAwe9YKcDnBfqTLDTdFPNgF53OJ02JQABau56Iiu//b8/LPKNfy6/9VUzCwAAAF35jZMfl3vuOShnfvtzjaDXTtAs89RvfVqVEmr9z/oLtujXf/v35J9a9+K+1s/XcL/4tJz7F/fJd373X8j//Edm3i6i5i7eqLkDAADALaWDXUCHt6eempYzZz7rTyrA6en/o+btvCmm/kJeBTt5WT723/9zf/rdVbnnI78n56Y/YtYB+hfhDgAAALFy4803pby25k9lf3pTzdupX//th+W+H6zKl36raOYof/R5OfmNP5c7Rh6Tf/WLZh7Qp2iWGeI3r7zPlER+JN9qVHGHl137xssiHwmaYtIsEwAAYLv8ZpbiNcvsxvaaZW52vfYR+fAvfkP++I8+Iv/q3/wzefBOM1uHwX/5eflj/ThoAnm5Kg+O/JS3uHG9+DOfk69+ZMC6dtT857zn8v8hJ89+w8zzfXj6d+UTI+8xJfuac+Nl/j4Myx1eQS37xjX54EfsZpnha9YftnnunaBZZrxRc2fR3+boD1+jmv4b6oP7kaxa0vxgBsuuDNshEAAAALH2i/fIPSoM1f7MlFvoYKev+f6ZfPA7zWu+f//WsHzi3zwtHzZribxHHvzgX8qXzHLvevFffE5+/aufln//Z++RD/5Cs3nnh6f/a6+m8Cttg11V/n10G2qZ7g/4iQ9ei2z/d/1aRRPsbqiA6u/fC2peEPS0ZoD1l78sN0b+GU1O9xHCXcNH5KfuFrnjwPtMWVEf0o/pavuP/awKcn8u/8H6YH7tt16Wa+YxAAAAHNDpmu/O+2S00WTzR/Ktr5qaPO2rfyDf+sFPyS+rAPW1Vd288x97IU1fW45+8D3yw+98u7muJyvHRt4j177xafmamaO38aXf/VP1/Fk5/DMi1/7I3n4zNH74F+6TO1RYvNioefyG/M9fXZUfmlIQJpvLi3Lx8o/kjg9+yAqncBnhrkF9OP7l/yHfuvth+er//ntm8r9B+fA/GBD5wV9Kxy96AAAAEG9/dENuyHskaY2SGdX5mm+jn/uG/PlbpoLgq38q1+Sn5PDH1Oxf/JB88M4fyXf+JNIksm0Noq41LMrX/qxz7aLe/s8ceI/IWzciYbHJW37nsHyicS37e1bzTuwHhDvLr09/SFb+ZVCN/c/lS5cH5J/+m6dF/qKqPih/XzY4FwAAACDWinJFhab7ftFuYml87HNeEDp2d6drvo2ac/qtv3548/vqsV9Tdt9w1q9l+7P/2+p/Z7QNmbq/n/pngwCqt/9nN38kcvc9HWvhvOV/Zo0EGkxBn0E4j3AXUB/qfzoyLJ/4bd3Hztf4dsR8C6Or2wPeaEvmMQAAAOLPb2IZvt7z+rF95Ke8gUd+61SziWXAH2Hzmqw0Qtp75MGPNQPih6cfkwfvbDbl/OM/uSY//JmHvRqza6vWqJwNJgB+xG8h5vnYP5ZP/Ivfk9/+mFlmB1B9jfozfg2gt221/8d0zaDnI/KvPtbsc/fHZ/9vuaae+7ft5f/m9+SroT6DcBmjZYaERxcKjY4UWcZomQAAAL2xN6NlNm18E/NtjpbZCH/Bz/+5/Pv/3upXF7FXo2V6NXn2rR92iNEy441wt20EOgAAgF7Y63C3bUG4C4W5KD/c6RE3e3kLgrgg3MUbzTIBAABwS62W1+TgwXsknR7qatLr6hudx1KngVSAPUDN3bZRcwcAANAL9xw8KL/xGx9XwS1t5mzsxo035bc/+zn17w0zZ49sUnMXNPfs9Y3D44Sau3gj3AEAACAWDqqQd889B/1CcIWaMP/qsnlcLq/5D7DnCHfxRrgDAAAA0BXCXbzR5w4AAAAAHEC4AwAAAAAHEO4AAAAAwAGEOwAAAABwAOEOAAAAABxAuAMAAAAABxDuAAAAAMABhDsAAAAAcIATNzF/6dJz5hEAAACA3aKyg3mEOKLmDgAAAAAcQLgDAAAAAAcQ7gAAAADAAYQ7AAAAAHAA4Q4AAAAAHEC4AwAAAAAHEO4AAAAAwAGEOwAAAABwAOEOAAAAABxAuAMAAAAABxDuAAAAAMABhDsAAAAAcADhDgAAAAAcQLgDAAAAAAcQ7gAAAADAAYQ7AAAAAHAA4Q4AAAAAHEC4AwAAAAAHEO4AAAAAwAGEOwAAAABwAOEOAAAAABxAuAMAAAAABxDuAAAAAMABhDsAAAAAcADhDgAAAAAcQLgDAAAAAAcQ7gAAAADAAYS7DeVlqVqX1QVTBJw3Kk8+fVo++ZgpImZ4f4B+Mvrk03L6Ux81JfQCxxTYGOEOAAAAABxAuAMAAAAAByQeOfpE3TzuWy9des486oGFValPpE2hjbWiJNI5UwAc8Ngn5fRD95hCG29eltO/8/umgD3H+wP0kY/KJ0+PSOdP7A25fPqLwid2KzimcaOyg3mEOCLcbUj3uZuV1IWEDE+aWSGtJ5wbr56WL75gCoZuH3508HZTUt5Zl0uf/4qsmKKvu2199FOnZeSgKWjtLuyOPClP/8qgNJ/xHVn/5uflK6+YorHX2+rlcdjzbcX0mHa3re6Og0/36Toq/2W503LcWpu9P/zO+2J6HulyW/E8pt1tK67HdM9/5w3vee9c7bgcW7fZMeV33rebv/N/tPKfzCPEEeFuQ5uFO8A1hLt44/0B+gnhrvc4prceNXfxRp87AAAAAHAANXcAAAAAukLNXbxRcwcAAAAADiDcAQAAAIADCHcAAAAA4ADCHQAAAAA4gHAHAAAAAA4g3AEAAACAAwh3AAAAAOAAwh0AAAAAOIBwBwAAAAAOINwBAAAAgAMIdwAAAADgAMIdAAAAADiAcAcAAAAADiDcAQAAAIADCHcAAAAA4ADCHQAAAAA4gHDXQb5UlXp9VeZNGXAdv/PxxvsD9JGpJanW67K6YMrYOY4p0BXCnRPmZVWd8KqlvFWuytKUKS6sqotCq9xT0eeO8pffkpOx97rrUq8uSXTv5stqvl7WMlkXz8HPd5g6v2Zgv+Oc1JSXpWr7c4ie9t95ZLP3B3BFp9/1W/wZ4NrGeYQ7J+RkZU0kmUr7xalBSUlSRh71P6D5+1Iitctycc4r7hvzR8zxSI7IsXYXkbWSzCQSkmhMM1KqpSUbBLzJ4eay6ZLU1Kzy+eb6A5mCXgtAC85JLdaKzfOJNXEeAbCnuLZxHuHOEeWK+ngeGvRqqPKPjqjLqOaFVTqlStfXZX99XOdldEhdP66V1YmreVG5sYKMP6tPdGkZpdkHsCOckwAA2HuEO0cUrlX0lZOKJf6FU3lZhRTvwiovg4dUyKmU/RU9rc2E2jVRijZdDFXVN6r1s95zJsdmrXXbNbcKP2fban/Tnr65nXD/Ir/PUbBMP0d4m6HXsDCq9qsml88V5bK6xkw+dMy7yASwN3p/TvKbMjXXiZxn4n5O6kr0NUb6WEb2R+9zaB/Kob3r4pgqm7xGLfw61RR6nkCv3x9gP9nk8xPYy3OS91x6G+F92/p5DXuNcOeK1ype1br+gz54qCaVF9elYi6stMq14Dty/SGdlcx1q4nQdElSE/YH1j8ZZIfKUrTWEfXHuLFOo1q/KPoSrbY809xeYkDGI82t0hOnRJ41y8+XvT/soROE/sN/NiMVq2nAzHKq2URSKWQGGj+vLg0kc3ZWUheC9Yuy4q/m8ZtkVmR9riAXX9XprnksOlOv+5mM2nJZVibNLADb08tzkneRoUKB1bRxZlnUOcC6sIn5OWlz+jhEX6N+Pusib25cBsy2vWdU+zybWmysX3zFX62787zS5jUW16ym6Yr+km92TKQ0HayjnnsoGwnD/r6nrGPuvz/qYjAIglt8f4D9o4vPj7bn5yRNb2NUVhrPV1PnzqpZhrgi3LliTl04SUoGp9KSSupQU5ZKLSirC6vX/NXypROS1n3N0jl/hqYuGBbX1MXOkeZJ5OKzMzIzPSyNteYuejVgqfu2V/9VWz7T/OM9WZRSaFsqVB1Pe3/sh61QVcgsqouAzk0kdRvx5vo5yTUe+zUDsrbi7X/hxcvtm1omMzJrfRtV1xdDovvhWa8bwPb09Jx0Uc5Mq3OStY7/udbbMzO2aG/PSYoKRM1zjZmsC7d2x6GQOaP2S11cnbQu8Gw6CFrr5yb9x90d0/avMZfW4St4jXkpn1MXdNPWsVKvK9SfUvP6VIbpi8yZ5ZIU7X0A0Kqrz88unJO6VD7fvCbyn083skecEe6ckpTUo+okUauoD19B1q+bslmqeX1dWkKNrqVTC03/GPXxlcKcnvxvbf11VPDZwee5+S19O/piT+1WqJmOnvzmO+0DZfPisMXUMRlR2yu/Yk5HJpja4dXTMqCKmgbG6QcE9EyPzkne+UhN3jfcZp2zupZ9+/b0nKS1G1DFunA79pB6wpZ+iKblQePcHBZu2trU3Xnef42txyEnw2rf/AtC/++APvZ2cy9vOzZdo2had4Se79p446IQQAddfX524ZzUlV5sA3uNcOcM/a24+oA/NCJJc4GgBzTwyl7zRH8tT4dR2+xgE4S6E5WgmYAeSdIs3CX2aE32tNWRm4LBG9ITwcnPBNOh0UbTBQC7rZfnpCDUnZBK0DxQXQzt8impZ+ekW2KzY9qmtqCdINSFmn+umYU2fYFqP8/5sn8Obts/D0BIl5+fvj4nYc8Q7pyhvxUXSSaTjW9z9YAGuqxmqMssnzeC3WYhZ2pJTgzVvD4We3PC8C8CW2rWtsX/Bjzcn0NN3oVg56YLAHqtd+ekRjPDPeub1ctzUjc61dB1qtHbWFfn+Y5N7f0g7ffNm5fsWNK/oNyweWVelkqRZ5sc9kNgh1pHwH3+eSTUhFkzX6w0a827+fzs9TkJ/Yxw5xDvD7rSOGEEAxpYFwZB++xs6Mbe5lvx0Lzw7QPypVMdmmWa/hc7Go2yIOMX1KVetJO+GV2t7Sh2nZgmmS1NjTo1zQSwa3p6Tgrdr1JdDHmDH7UTs3NSl7zjoJtShvrh6fNuTUrntta4sbtj6r/G6EAy82XdzCs8qFTovKmOQbRZ5nx5VjJj2Ugtg7kdzasXG++1rxfvD9APgvPICWvkS3PuqpWkaD5j3X1+9v6chP5FuHOIN/S43T7aG9BAf0kefEeu6f4UM1ISuz9GVkR/Mxs019HNA8zocf7yupySM94oSXpe9CSSS0e3t42hcvVIatE25xPijdYZ1B42+nxM6G/B9AhOrc83f7LTaJfmm/HQSXYT5qTpTaZ/T7OpJydTYDO9OifpwQWKa/ZnXo90qZuK63mtQ4bH6ZzUPX0c/JEog23MjlXU81m1lY1h0P1+NqH+N6ELwy7O85p5jXoUzWA72UO6hjQYQEFtR7d6sAeDObLij8Sn55nnzKXVdiP7rp9Pj/7XrvVHT94foB/oz9j5inVuMAO3WZ/Drj8/vToncW3jvMQjR5+om8d966VLz5lHvaM/IP4fVkZOxP7A73y88f4AfUQHcTNsvT26IXaAYxobKjuYR4gjau4AAAAAwAHU3AEAAADoCjV38UbNHQAAAAA4gHAHAAAAAA4g3AEAAACAAwh3AAAAAOAAwh0AAAAAOIBwBwAAAAAOINwBAAAAgAMIdwAAAADgAMIdAAAAADiAcAcAAAAADiDcAQAAAIADCHcAAAAA4ADCHQAAAAA4gHAHAAAAAA4g3AEAAACAAwh3nSysSr26JHlTBJz32Cfl9NNPyqgpImZ4f4A+8lH55Omn5ckjpoge4JgC3SDcAQAAAIADCHcAAAAA4IDEI0efqJvHfeulS8+ZRzuRl6XqrGSSptiiJqXpARmfM0Wg743Kk08flcHbTbHFO7L+zc/LV14xRewx3h+gn4w++bQc7fyBlXfWL8nnv7JiSugGxzSeVHYwjxBHhLtOdJ+74xWZGRiXgpllaznhvLMulz7/FQmfYnT78BG5x5S0G6+eli++YArGRz91WkYOmoL25mU5/Tu/bwrGkSfl6V8ZlOYztr+w2+tt9fI47Pm2YnpMu9tWL4+poft0pf+q83LcWpu8P/zO++J6TornMe1uW3E9pnH9nffp1zAsf9VxObZuk2PK77xvD37n//xOwl2cEe462STcAc4h3MUb7w/QRwh3vccxjQtq7uKNPncAAAAA4ABq7gAAAAB0hZq7eKPmDgAAAAAcQLgDAAAAAAcQ7gAAAADAAYQ7AAAAAHAA4Q4AAAAAHEC4AwAAAAAHEO4AAAAAwAGEOwAAAABwAOEOAAAAABxAuAMAAAAABxDuAAAAAMABhDsAAAAAcADhDgAAAAAcQLgDAAAAAAcQ7gAAAADAAYQ7AAAAAHAA4a6DfKkq9fqqzJsy4Dp+5+ON9wfoI1NLUq3XZXXBlLFzHFOgK4S7fcy/WKzK0pSZEeh0Al1YVevXnbrAnC+r11Ndkrwp71THYwq4pHEuCKY4/c7Py6rap2qpi0+1eR2uXixyfgOA/Ydwt48VMgOSSAzI+JyZsREd+CbSImtF9TPDkjOzEbalYwr0q8lh9Xue8KfzZTOzD5nXMTxpytgQ5zcAiD/CHTang93ZjCR1sEsT6wAAAIA4Itz1C9NUstkMKto0Mi9LVTW/PO83xQnWizbJ2XJzqnlZ3SjYbbhfZp/aNQvq1Bwq2L8dNiXymw9Z+6WOS5PfbEvPzw6pYjIjs9a6jeZckdem54e2G2yzy2PqvS/qZ0Lb2ODYBNPqwhaamQExE/0sdvo9Dp23Oqy34TqNz01W0qqYHJu11rU+ky3nrA2aZUY/26HziOZ/NlcXzLnOrNfxs9qj89vGx+pWnN+6Pw7hfVd/L7zt09QTAHqFcNcP9B8/FbBkeabRFKq4lpZsuwuEoayMvmKaSyVmpCTqD7u93paaU+k/2OpCqVaSmXbBzuxX5XzwfAmZWU5JthHwCjL+bElq6uIiG7p4UhcAx/0mnrvRHEpfoMyOVaQYvM5EUcrquDQvIHIybJYV11RRv77GugkZyBT0SiJz4zLgzVM/r4r6YnE2tdhYr/iKv9qWjqnaj1NyxqyvtqsvvOwLRn3BNZGWcuOYzkjluH+xCvQb/7MoUpoOfp+LUtGhKxSS/ECQPWR9DqdLImq9Zjgw6wyVm59rs04jmDU+h/7ntWadL0NNCRufa38bNTO7hT6/RT6LpUPqPNLmvJueOCXyrFlPnQP0uWK3+vHpcNTuWDW/WLt157fNjoP+fQi/hxU5oZv7AwB6hnDXB/KvFdUfwRk5E/xRVnKvqD+yyVTrRX8oMHUKV91JT5hQ0e55TEDTF1B2QCtkFtWFQlpGg+ebuyiX1dVT+oh1MbeQlUyyJqVzbQJjcCExMK72fnvSqaR5FNAXO0UpLZ/ZWV+RSO1lbnIbTVTVhVbzfcxJcVkdnEODjYvF+ZMZSap1itH30JSA/jEv2bGkCkd2Hy31WdQBYehEs6bGOx+oC377M6+Cxxn12Ug+dKzx2bj47IzMTFv9fc25JXVfNGr1QrvzW+fzac0+t0yqc02n/drx+S0vg4fMw4AOaSrglc7vsC90D85vGx8H//ehtly03kP/fQYA9A7hblc1m8cE03a+zS3MqcsANRXsZjQdvu2sVSLfrM6tS0X9s60LIO8bX/2tbrtawrToDBVu+qQnPxA2n09dEF0IX8zNH1Fr1C7LxZ0ErQ3k0qZm096v6qBctMLxdrQc2+24vr7BRZ1/4VZ79WJ4HfMeAjvXm3NSVxZG1bmgJpXXTDkwuaLOKUlJPeAX8/el9IfLqz2yeYN3NEKQOv/pc6A6ZzSb9c2qUOgt7L2pYzKitl25Fvm0dgiULevtGnU+HTAtMuz38eS6jO+wFUQvzm8bHoepQUmp34fLL4bXKVzj7AYAvUS421XN5jHBtK1miEGoO5uSxWBbmzX/64HyBX1hZb5pT2bkVJv+E80mS+Gp0fRHMxdzI4+qn1ev5cRQsO3dowNec3+Ci6G49+vwAzOwe3p0Tuqh1pr29oJQd6ISNLdUn+t9WemjA579HhZNs/NoP+yYeSCl/goAAHYb4a4PeE31dJOZLm5BkExFavQ6fFu6JZPDMqObSIX6T5Sloi6sQs0tO/KbHybHsrL06Ij6A1+Wld28oFxYioS4oGljs7YgnnKysqbeQ6spmsd7D4E+E6mha4jU6HVqYu4N7hG0GPC+FKp5ffdCXxztlk5NPjvV6O2hfGkpEuLMF3DqLDEY5y+v7C/5LF7NLQCgZwh3/WJo1PqDPi+rnTqhD2WtAJaXpWd0H66dN4EsZM5435KnJ6zBUrzmltnwiGhmZLXoKGlBX7xMtM9FlPn5bY8m5w1IkpHM2XAtXb5DqPQvLEfkWEwuinLn/D49zVpS8x6aEtA//C910hP2Z9Gcu9YWI32zIk2/1ef4lD5XhJooh4NBvnSqQ7PMDl+SbIl/fgt/oRWcT+0+sVu00/Ob+vnZsYw1aJWvU1P3eJ3fgi/5TjV/H8z7DADoHcJdH8ildfMjuw/ZqKwEfeGiTXHWirJyJFhvVjJSkhm7835wcaEnLyAmVRAK1t+o2aJuChQ8p1lPDw7QGKkt2KZ4I6G1frvuX3DpGr/F3fzm3YwAN7Ms1uuqm9Ez29R8erWS4XUbI/npoOjNazO0uj3a37aPaRt6/80oc/7Pz0rqgj+aHRAbXf7O635z4c9XVlJ6FMvQ6Lt+M8PidasfmRmFNzSyY+hzUfdGnQ1aFES/TPLOmZF+aY2Q1vhc+8+jo0V6os16+vymnrO5TJ1Prxd3NNjTjpkBWaJ9ir3RM9vtV8zOb/r3obhm/bzuauDVOgIAeiXxyNEn6uZx33rp0nPmUe80h9Pf4QhkeyYvS1Vz8dHutgW3XNz3Lw78W0/oi99QONYXYeZidzf7R/Xf7/z+wvuDvqZD4kRKStP26KkO/17v0Xl7X+GYxobKDuYR4oiaO+yNjW5/AKNNsyWl9fYIANBnvOa3Sck8YzdJbXN7BADAjlBz54y41oz5tVG6MY8eWZNv2zbnf5Nt9UPRt6S4lU3BAKAnzN8p+/QWbakAIPaouYs3wh0AAACArhDu4o1mmQAAAADgAMIdAAAAADiAcAcAAAAADiDcAQAAAIADCHcAAAAA4ADCHQAAAAA4gHAHAAAAAA4g3AEAAACAAwh3AAAAAOAAwh0AAAAAOIBwBwAAAAAOINx1kC9VpV5flXlTBlzH73y88f4AfWRqSar1uqwumDJ2jmMKdIVwBwDYgXlZVRdc9WCqLkneLNkvNg7ekePjTTsM6X19kesfj2qpV78leVmq7s/fOwBoh3AHANgmfWGdlfRaURKJhD8NjEvBLEVTbXmmcYxmllOS7WnA2c8KMj7A7x0ABAh3AIDtmTomI8malM7lzAx0o5AZkMT5siTHTsnSlJkJAEAPEO4AAFtgmsHp5oVnM5JU/2XOBs0NW5vH+U0Wm8ujtVXzZetnveaKdjPGajj8LKxa66qpbVO8aDPIyDY83azTuu/1st2YsnkcZseSqpz2auPar9vGZFFKNXXsTlrrmeaWjW1Emm829sc77uoZJzqvu9m2bI3tbrbPG9rkmDbeu6w6UqKC7WzbdcPHXM+3ft/UFDRFDf/eqGmD34XVhfA2WmtMw8v1tua9/dhh81kAuAUIdwCALTDN4HQTw+mS1NR/pWlTjjTL1Bfqs2NiLS9KRV/UWyEil/aXzSzXVEkHpBNSCdafXpR1fzX/on8iFXqu4vWMzNoX9V6gyUoq1ARSVPi0goZZx25K6q/TGqRmxypSNOvofS8PZdUFf7Ct5nHw971sraum9Ga1mQVZv67+OTTo778OPyq0ibXvxTV1PKzX59X46WXecVfPeN56vsSwNJ6xi231lg5R7Y67CkrBez05bJap46iKdjPVRGJAxuf81Rqv8bxeS39xMCupC8F6RVnxV2v83uipuGZmdpCeOCXyrFnfqzGdDfVXnC/PSkZKMmO2l7iQkqwX2AGg/xDuAAC7YN67QC6fb164q0tyGdYX7UMnwrU6DTooWuvP5STnPW63LbW1cyrkJEfkmNnW/MmMJFVoG8g0e18VMme8GrKRR4NYc1HOTM/IjBW+Ci9eVs+ckkFrn9Kp6MW92ncVLkrLZ0L70Cv511TYVPt1xtr33CvqWCVTXk3XVmx1W41AtWkg7WBqUB29ML3NmeWSFLe7TUMH2OFJU1DvQa7xuHs1+z3zakxFUveZ3wcV9k8Mqee5YPXZU0F0s8AIAHFFuAOAfSPadG4XR1xcGFVBoiaV10w5MLkiZUlK6gFTDqnIervgZMJDuBmimkyzUH9beRk8pC7kK7rGx+bXsDUC31xBCnqyj4Vp5mjTNUNebZf9fNVBuWgFpl7S++Ttm92ccmKrsc7Xy211ZW5cBqZLIqGmlnXJXhtv1iZuS5vfn22oXNvgPXsgpd77sqxEQmO5outGAaD/EO4AYN/QtU+m6ZmZmrUicRdp/tnyGtLSUtnWVhDq7OaffjPHKLvpXyIxIyXJyGyH/nlb54dRub7u1xgFQexsShaD5/SaJm5DL7fVLR3wgucyz+eF8R3149t9+fuidY4A0N8IdwCA3utUQ9epRm8jc+tSUdtqNq1sJycra7rlYbSGyh8sIxhEI186Iema7l8VbuLZYmEpEuIKMv6sDoGdah23aCErGWuk0aBJaajv3Db1clvdUce4FAlxQdPGoE9hTPlNctMyGqnBbm2WCwD9gXAHANgFOSkuq8vmCbuma15WdfPAtcUt9lvztxUdCCMYWTGY5/XBG8qGRkPMl055Ieryi1bTPKufnhdMnok0y9Q1XxOZ8EAsSv7RkbZN+DoFhE78wWFUxI323xsaVUcoYI5VO3MX5XJNBZAjG9SKdbstJTiO261l8wYkGctGfn5eRodEaq9ebPZl85gQ/tCxeIS+uXFZVPuTnrAG1FlYlazadwDoR4Q7AMAWWMPGmz5v9q0Q7PDlD6phRk30lpsRFa1BNoIh7VtvJxAOVt6gH0FTP7PO7EOXvREOG01LvaaBZkTOYB1vxMvwaIzFNXuf9UiKM/5tCYIwZ5oYhvc92Fab2jC9fmTfokPz20P/B6Nw2gO/5NJ6H+zXPyor3siSel50SH7djzAYvTNYv3m8tratnfObr0b3x3+v7dcY8PbPa+IarNv8vWkETS+Mdv7dsm+F4AWxpLW9LY4K2nK8jqv3xxsBFQD6T+KRo0/UzeO+9dKl58yj3mkOg71XzVqAW4vf+Xjj/QF6r9PnSofH7KGSzFi39tgSXft7NiOV0Gif2BGOaWyo7GAeIY6ouQMAAPtSIbPo12jaTUpViGi5PQIA9Alq7gAAwD6mR1DNqojXFL6/HgAbNXfxRs0dAADYx/r5FiEAEEa4AwAAAAAHEO4AAAAAwAGEOwAAAABwAOEOAAAAABxAuAMAAAAABxDuAAAAAMABhDsAAAAAcADhDgAAAAAcQLgDAAAAAAcQ7gAAAADAAYQ7AAAAAHAA4a6DfKkq9fqqzJsyIFNLUq3XpV5u81sRLKsuSd7M6jf8zscb7w/QR8zfhNUFU8bOcUyBrhDu9qn5cqcgMi+r6uRZLQVLdLkqS1OmuLCqLjCtck9FnzvKX35rTux5WXomI8m1oiTSOTPPMjcuA4milJMZOdVx/wEAAIDdQ7hDRE5W1kSSqbRfnBqUlCRl5FE/sOTvS4nULsvFOa+4b+RLpySTrEnpXJtg15CT4nJNkmNZalcAAACw5wh3e0HXdvVRc71ypSZyaNDb3/yjIyraNcNeOqVK19el4JX2i7wce0i97rVFGd8k1BZevCw1ScsJau8AAACwxwh3/cJrDllvTKsLHZowRtYLh0r/Z/T87JAqJjMya60bbKtwraLTnIoofpgrL5ek5oW9vAweEqlVyt56nqCvWWNq1yeo+bz+FGnW2djnrPecybHZzut68rJUDZZ3aMa5yX55zVJDy+x9jDzn1DEZUdku9Lo7mbsol1U2Tj50zDruYX7fKfU87fruAQAAANtEuOsHOqhMpKV8PiGJhJ5mpHLcD0I2LzRMpKQ0HayXkOJ1FeAaAS8nw8H8NVWslWTGlPU0kDH1ca9VROUTRYe5mlReXJeKCXta5ZpZT4eysxmpNPYrITPLKcnaQcoLWWpfdV+1xjoimbPWOpPDZllRdHyqLc801k0kBlpqy9ITp0SeNcvPl70wGOqH18V+5dLBfP1K02rZCakEx216Udb91XwP6Iap1uveUEHWr6t/rOMFAAAA7AXC3a4I1yzVVTAL15JtbUCS+ZMZSaogVpw0M1SAGH+2ZAJYYF6yY0kVAMNhKHdOrZcckWNbGQBlToU5ScngVFpSyYqsz5WlUgvKKuy9pldSr/F42gtiw439UnuWWVQBLS2jjbB1Uc5Mz8iMNQiJ33RRb8/M2KLa8pnma5wsSkkdiNR9QT1Zt/tlq6lAbB23uZzkrGPo9TNU6/ive3Nes9YNFDIDfohsNzALAAAAsE2Eu12hwteAqQXS0/lypJastTaqM9MU8tWL4X5uXgCzeAOf6FotK1Tq6awKhuq/1AP+at1TP/Oo2matokKRro0yZbNU13bp7nfhJpR68msUG2FrriAFPdnNHr192r6Na9C63K8QHWDNw57ZfngFAAAAtoNwF3t+WOmOroGyQqU12bVYm9M1dSqePDQiSTN4iq6N8sqRINRsKhqeGk08G6HObvYYrXXsvc33q3teH8QtBGRv0JldCYwAAABAZ4S72DO3JogO0GFq6hq8mrzmLQt2xu83lkwmG4OI6ICjy2qG1y8uCIDpIxsPCpIvnZC0V2u5ldrKnehuv7bE9EFsX+sX5de0No8TAAAAsDcId3tBDxgyMB5uVrkFfr85++bY5obapuQL7rEWHlwkGJkxeuPv3CsqemzQFy/oN9ZoAhkMstK4DUJBxi+obQxlw6NVmpEvQ/NCz9Nu3wMdguyWbGG/uhWMgBnc+28jwcia0Wa0FkbLBAAAwG4g3PWDuXEZMKNC+v3HZiV1wR9Z0uYN1KHWs/vdzT502evr19IsUwVOf9TK5rp22PCbIlqDiJg+fqHbAejQOl0Ssfu3TYgUreaPep+Ka0nrefRIlzNSqul5rQPL5NJqmYRv0RANppvqYr+CWyHMjumYqUfLDJ6v3WA3Bbn4qkp3Qyc2HQjHvy9gWRa30fwTAAAA2AnCXez5fdaq9zVvJaCn4df8Zpktg4s0bitgpg1qDBujNgaTPXqjtx27KaV/G4WWPms6eNrbSAyrNcOC2w74k95mMOBMu6aakcFo1NQMpv4+hIOqv/5W9yu8T/bUvvloIXPGD6QnN6pt80csrS0XW46BjdEyAQAAsBsId7EXNLc8Fao1ar09AnaXCpH69hND2fbNKYP7+an35Ay1dgAAALgFEo8cfaJuHvetly49Zx65S/fT8psQGnqQkh304wMAAAC2SmUH8whxRM1dn2hpQkmwAwAAAGAh3AEAAACAAwh3AAAAAOAAwh0AAAAAOIBwBwAAAAAOINwBAAAAgAMIdwAAAADgAMIdAAAAADiAcAcAAAAADiDcAQAAAIADCHcAAAAA4ADCHQAAAAA4gHDXQb5UlXp9VeZNGXAdv/PxxvsD9JGpJanW67K6YMrYOY4p0BXCXcxFL+i8crlRkqVq3Sr32CYnUm9fqktqL/aGfyzU67Wmamlnzz5fVtvZw9cAAAAA7BbCXcwVXrwsNUnJ4JRfTqeSIkOjJuylRRfLr+S80v5QlmIiIQlvKkplbDYUfgEAAID9inAXd3PrUpGkpB7QhXkZHdL/mrA3Nage1aTymp63H+VkODEjpVpasrtVewkAAAD0CcJd7JWlUlNx7r68H+ZqJSmtmbD3QErFvoqsz/lrehZWw00X2zU5NM0tm+uFa74azR/PZtT2RdITndf1hJ6zfS2a1/yxsU60OeW8rFrLvGam9jY3bDZZkPELZZGhE7Jkaje1liacofDXfL6sDsvJjMxa60abem687wAAAEA8EO5iryDr181DHeaur8tFlfa8sKfVKir++bxAM5GS0nTQbDEhxesquNjhSIcmFdpkeaa5zlpastY6hcyAv2y6JCpXSvl8c3uJxLCEGoHqYHRkxSwztWihMOb3C8weKslMYxt+c8pmSNI1cMHPq+JQVurHK431Zy6s+6t18lpF7WdQu+mHsdkxsY5DUcpqm63Pp1+7KqrA3Ny3hAxkCv5qwb4PWU1B1TERte906AYAAEDcEO76QFmFuWQqLfn7UirLlaVwrdIoiwp7fhSZl+xYUgWxARm3avJy51RAS47IMVOrlX+tqALKjJxpBBi1zisqHiZTkjblrVHBJx3EPVOLZm9rISuZpFpnYNzsp5aT4rJ6TQ8ds0KgRYcta/3CZM762c3kpXxOBcLpM9ZxyMmKCnH6mG3VxWdn1LasQDt3US4HNakAAABAjBDu+sWhQTmWSkrlmoo5uqbKlBu8/nfRJpRq8ppWNmu1CnPq59VUsJtmTmwv1nmsmsN2vACqol7W3ic1zaog2jFQNgLrdqjXpkKdfp1200yv+eWW6W3522s2zZxVYdUsBgAAAGKEcNcHdE2dJEdk5JAZPEUPsuKVdbayo1Ut1CTTnoYnzSpBqDubksVg+fmN4lkPRJo9NqdIE8/t8voeNgeWCULdbGqx8Vxe88ttCELdiUrQjNU0HQUAAABihnDXD0yfsmQyGDxFD7Kiy+LX5GlmVM2RRzduLjh/MiPJtWLvgtUmgmAaNAvtvbwsHU+LrC2aZphB81QVxBrNRbdJBeETQ35gbvbDAwAAAOKJcNcPvOCmNJpABoOs2LdBMP3YIoN9BLVYoQFAGvfJ0+ZltVOzTNO/LH2k3fiXXZosSkkF0cxZexRNc/P1Hd+fTo96qZtJ2v3+fKF9Xljt2CzT72+4UfgMB+Z86RTNMgEAABBLhLu+4N8Owe6LpgdZkchtELxRLs+XQ/3uZh+67DWJDJpl5tJmREuzvF4flRU9mqTXLy4atgoyPuCPNBlsr16vhm45sDm9DTMiZ2MbszLyqm7mGNQeBrcmMP3Z7OdruQ2CvZ2spLxRP+1ayJwM61E+7W3o0Tx101M9L3o/vMlhmVkWFT6DbaopWGduXAbUz+nAHCw7JWfU+n6I5pYIAAAAiJPEI0efqJvHfeulS8+ZR72ja7xmxypS3KPmi8Ctxu98vPH+AH1E928/m5HKeavPO3aGYxobKjuYR4gjau4AAAAAwAHU3AEAAADoCjV38UbNHQAAAAA4gHAHAAAAAA4g3AEAAACAAwh3AAAAAOAAwh0AAAAAOIBwBwAAAAAOINwBAAAAgAMIdwAAAADgAMIdAAAAADiAcAcAAAAADiDcAQAAAIADCHcAAAAA4ADCHQAAAAA4gHAHAAAAAA4g3AEAAACAAwh3nSysSr26JHlTBJz32Cfl9NNPyqgpImZ4f4A+8lH55Omn5ckjpoge4JgC3SDcAQAAAIADCHcAAAAA4IDEI0efqJvHfeulS8+ZRzuRl6XqrGSSptiiJqXpARmfM0Wg743Kk08flcHbTbHFO7L+zc/LV14xRewx3h+gn4w++bQc7fyBlXfWL8nnv7JiSugGxzSeVHYwjxBHhLtOdJ+74xWZGRiXgpllaznhvLMulz7/FQmfYnT78BG5x5S0G6+eli++YArGRz91WkYOmoL25mU5/Tu/bwrGkSfl6V8ZlOYztr+w2+tt9fI47Pm2YnpMu9tWL4+poft0pf+q83LcWpu8P/zO++J6TornMe1uW3E9pnH9nffp1zAsf9VxObZuk2PK77xvD37n//xOwl2cEe462STcAc4h3MUb7w/QRwh3vccxjQtq7uKNPncAAAAA4ABq7gAAAAB0hZq7eKPmDgAAAAAcQLgDAAAAAAcQ7gAAAADAAYQ7AAAAAHAA4Q4AAAAAHEC4AwAAAAAHEO4AAAAAwAGEOwAAAABwAOEOAAAAABxAuAMAAAAABxDuAAAAAMABhDsAAAAAcADhDgAAAAAcQLgDAAAAAAcQ7gAAAADAAYQ7AAAAAHAA4Q4AAAAAHEC4AwAAAAAHEO4AAAAAwAGEOwAAAABwAOEOAAAAABxAuAMAAAAABxDuAAAAAMABhDsAAAAAcADhDgAAAAAcQLgDAAAAAAcQ7gAAAADAAYQ7AAAAAHAA4Q4AAAAAHEC4AwAAAAAHEO4AAAAAwAGEOwAAAABwAOEOAAAAABxAuAMAAAAABxDuAAAAAMABhDsAAAAAcADhDgAAAAAcQLgDAAAAAAcQ7gAAAADAAYQ7AAAAAHAA4Q4AAAAAHEC4AwAAAAAHEO4AAAAAwAGEOwAAAABwAOEOAAAAABxAuAMAAAAABxDuOllYlXp1SfKmCDjvsU/K6aeflFFTRMzw/gDOGX3yaTn9qY+aEgDsHOEOAAAAABxAuAMAAAAAByQeOfpE3TzuWy9des482om8LFVnJZM0xRY1KU0PyPicKQJ9b1SefPqoDN5uii3ekfVvfl6+8oopYo/x/gDu+ah88vSI3GNKrW7I5dNflN83JSCOVHYwjxBHhLtOdJ+74xWZGRiXgpll0+3kj9pXXe+sy6XPf0VWTNHXehK/8epp+eILpmB89FOnZeSgKWhvXpbTvxM5tR95Up7+lUFpPmP7C7u93lYvj8Oebyumx7S7bfXymBq6T1f6rzovx621yfvD77wvruekeB7T7rYV12Pa17/zhvca7lztuByII8JdvBHuOtkk3AHOIdzFG+8P4BzCHfoR4S7e6HMHAAAAAA6g5g4AAABAV6i5izdq7gAAAADAAYQ7AAAAAHAA4Q4AAAAAHEC4AwAAAAAHEO4AAAAAwAGEOwAAAABwAOEOAAAAABxAuAMAAAAABxDuAAAAAMABhDsAAAAAcADhDgAAAAAcQLgDAAAAAAcQ7gAAAADAAYQ7AAAAAHAA4Q4AAAAAHEC4AwAAAAAHEO46yJeqUq+vyrwpA67jdz7eeH8A98yX61KvLknelAFgpwh3MRe9oPPK5UZJlqrqD0Oj3GNTS1Kt12V1wZQjvH3Zwz9K/rFQr9eaqqWdPTt/WIFdYs4f0c9sMG3ns9ufAdecp+3X3+mc3eaYdTr/7j3zOjhfAkCsEe5irvDiZalJSgan/HI6lRQZGjUXN2nRxfIrOa+0P5SlmEhIwpuKUhmbVRdA1GYAcVU+H3xew9NApmDWcF1BxgeC1z0jpZqZHbWwKvWzGanYx+t8WdITG4TBPWVex8C4egQAiCvCXdzNrUtFkpJ6QBfmZXRI/2vC3tSgelSTymt63n6Uk2HvYikt2Vhc/ADAduRl6XhaZK0ow5NmljY57AU8GTohS+YLPgAANkK4i72yVGoqzt2X98NcrSSlNRP2Hkip2FeR9Tl/TY/+9tdu1tOuCU1L059wzVej+ePZjNq++N8cd1jXE3rO9rVoXvPHxjrRJlnzsmot876ltre5YTOggoxfaL34aWnCGQp/zefL6rCczMistW60udjG+w5gJ4LPV6j5YXCO8j63zWaNs2PeGUmy5rPoTdEvdro9v3lTVZ03ws0mg/3w1tPnnk3Pb5Hzl7dNs6gXdMBLDMj4Fs7z4XOW3md7H/39849Du30165rjGj3/bXQ+3vi8a2zy/gAAdoZwF3sFWb9uHuowd31dLqq054U9rVZR8c/n/WGdSElputmsp3hdBRf7j7G+KFChTZZnmuusqYsla51CZsBfNl0S3YIo3KxqWEKNQHUwOrJilplatNAff//CKXuoJDONbfjNKZshSdfABT+vikNZqR+vNNafubDur9bJaxW1n0Htpn8xMjsm1nEoSllts/X59GtXRRWYm/tmNxcz+z5kNQVVx0TUvsenHwzQ33Jp9Rlfrkl6IrjIV5+7ZzKSXCtKIq3PNs1mjXq9cNNsNXnrGOb8ZjdtnFlOqTDYDBCN85uuEVPnjczZWUldCNYvyoq/mm+z85sXVLKS1vvaeD5R29xqYCnIxVfVa9PnvnaByNLNeV4fU39f9PHSYfiEVIL1pxdFn1ELmTPq9SRl5NHm2VrLl06on1DH2BzXYFve8+jzZQf+ebcSajavz7uh19PF+wMA2BnCXR8oqzCXTKUlf19KZbmyFK5VGmVRYc+PIvOSHUuqIBb+hjd3TgW05IgcM9/O5l9TFyHTM3LG6u+Se0Vd5CRT6g/6djQvAryLMF2LZm9rISuZpFon1E8jJ0V10ZF86FjzIsmmw5a1fmEyZ/3sZvJSPqcuGKbPWMchJyvqokQfs626+OyM2pYVaOcuymV1vdQI1wA2FK7596do7bcOXN6XTCoI5EunJCPqHGCHtq6oUHg8LbXlmVDTxkJmUZ2l0jLa4QsZ/eVVc/2c5OxmkZud3+SinFHnU3tfo/2ku+WHThOIrGMV/iKpu/N8WE0FQWv9OfUavcd+oEyOZa1glZdjDyVF1laa57xuqJB7Ykg/j/3lX06GvSalQR/x7b0/AICtIdz1i0ODciyVlMo1FXN0TZUpN3j979pcSHlNK5u1WoU59fNqKthNYya2F+s8Vs1hO14AVX+4Q82o1OQ1r+oUKBuBdTvUa1MXLvp12k2EvOaXW6a35W+v2TRpVoVVsxjAptoNqNJuMJVc2g82Xq37s9sZtMMfYCrpDbLUPNfUdc2aWtr+C5lN+ixvcn7zzqV6UvGl0ezRNGffnmarAj35NZpqm0GtXJfn+bBI031LS7CaOiYjSRXSzm0xWLfrIqB5TUqDwLed9wcAsFWEuz6ga+okOSIjh8yFiB5kxSvraw/70kN/cxq+iAqmxjelQag7m5LFYLnXPGkXRZo9NqdIE8/t8i4smhdpQaibTS02nmuj5kQbCULdiUrQjHWD0e4AbN/CqHeRr052LU0Ft2JvR+cMQp3d7NFvzt4LXm2ePj+HauW6OM93zW/VkD7uh8f5k7o57GK4f18X/C/xusPoqQCwuwh3/cD0KUsmg29G9SAruix+TZ5mRtXc7KLI/+Ot+4f0KFhtIgim7ZsL9YLf1EcaFyRBsyV1wbDlZl0RjaZGXHgAu0uFpIm0/7lVYSY5dmobg5L4g0+lj+xd7y2vf5r35VVkwJMt8r+Q6qLfWZfn+a1oNun0R2Pezq11OjZF9QZ+CV7X3r8/ALAfEe76gfcHXWk0EQoGWbGbFJl+bJHBPoJarFC/jUYfCM2/qGrL9C/b0R/jyaLXaT88wIA/UMnOR0nT35rrZpJ2vxhfaJ/VBUanZpl+f8ONwmf4QsrrD0SzTKCH9PnAH5TEq3maHJbimjpnPGMPzOTzQ0Sn/lnByLn24EmKFzB2cZTb0PlDvRY9GIwpdStoHpltGb3SnJ8bX15t4TzfLe88r8/R6j1QQbW45do/ZW5cFvV7FjrPB/se9N+7Re8PAOwzhLu+4H/jafdF04OsRPtSBE147P4Ysw9d9ppEBs11cmkz4ptZXq+PyoruxO9dWETDlh6lLtrBf6vDfOttmBE5G9uYlZFXdTPHoPZQhzR/vhec7OcLjbyp2dvJSsob9TPSiV83i7K3oUe78zr2R0Zu09SFpD+6XbBNNQXrqAuWAa8WodlH5JSc8frB6HlcjACbazegip78z48Odq1f0Hj977xblETOSeYzGdqmfY7QfbzMiLaN5RPijeAY1L43+uJ6X2rpQGLWU9NWw5E/EIy9jVMiz+pzrJ4XnCuDL7P01OYc551v/L52Leei4BxnD9jSxXk+aE7eeuuIdudvE7qU2qsXG39jAs3+xm1uHRMZodMf+TJYv3Xfu3l/AAA7k3jk6BN187hvvXTpOfOod/QFgD+s8940XwRuNX7n4433B3CPDs/erYJCI0oD8aayg3mEOKLmDgAAAAAcQM0dAAAAgK5Qcxdv1NwBAAAAgAMIdwAAAADgAMIdAAAAADiAcAcAAAAADiDcAQAAAIADCHcAAAAA4ADCHQAAAAA4gHAHAAAAAA4g3AEAAACAAwh3AAAAAOAAwh0AAAAAOIBwBwAAAAAOINwBAAAAgAMIdwAAAADgAMIdAAAAADiAcNfJwqrUq0uSN0XAeY99Uk4//aSMmiJihvcHcM7ok0/L6U991JQAYOcIdwAAAADgAMIdAAAAADgg8cjRJ+rmcd966dJz5tFO5GWpOiuZpCm2qElpekDG50wR6Huj8uTTR2XwdlNs8Y6sf/Pz8pVXTBF7jPcHcM9H5ZOnR+QeU2p1Qy6f/qL8vikBcaSyg3mEOCLcdaL73B2vyMzAuBTMLJtuJ3/Uvup6Z10uff4rsmKKvtaT+I1XT8sXXzAF46OfOi0jB01Be/OynP6dyKn9yJPy9K8MSvMZ21/Y7fW2enkc9nxbMT2m3W2rl8fU0H260n/VeTlurU3eH37nfXE9J8XzmHa3rbge077+nTe813DnasflQBwR7uKNcNfJJuEOcA7hLt54fwDnEO7Qjwh38UafOwAAAABwADV3AAAAALpCzV28UXMHAAAAAA4g3AEAAACAAwh3AAAAAOAAwh0AAAAAOIBwBwAAAAAOINwBAAAAgAMIdwAAAADgAMIdAAAAADiAcAcAAAAADiDcAQAAAIADCHcAAAAA4ADCHQAAAAA4gHAHAAAAAA4g3AEAAACAAwh3AAAAAOAAwh0AAAAAOIBw10G+VJV6fVXmTRlAr83Lar0u1VLelLFzHFPAOVNLUlWf69UFUwaADRDu+sh8uS716pLs98u2/RO875evP/hpWQ+mD4zKY3r2baPybXu+mr5+h/cDu8zfn2/ffcCUAQAAECeEOyCWDsjCBx6Xw288L4Pf+pw/fXdFXtCL3l2RDwXzrrwsb3vrAwAAYL8j3AFxdNv98vN33ZTlG1fNDAAAAGBjhLvY8/vQ1NWUHVLFZEZmTVlPLX1rFlYby7wp1IwzL0tV9TNV3axRL6/K0lRz+81t+evVy/N+U9C22zJMX4DGOpHmkn4TymCZfj6zbTPP7kMQXldN6vmbmj83O5ZU5bRkO6zbrvlqtCln6HV585vHwd9Ps6K24TG1BduI/HzXdG2daWp5+GG5S5XHDlvNL4NmmVtxx+PNn9fT++43C2yR5p8PnpSF28wirbGNx+WwKt5178nO6wIAAOCWIdzFXk6GEwlJqKm4poq1ksyYsp4GMgV/NcULMBMpKU03lxevqzAYCSPJ64tme0nJnB2VFfV4ZrkmybFsKJjJUFZGXwm2NSMliWxLh56zGamcbz7fzHJKha5miCpkBvxl58uqpJ9vVlIXgvWLsuKv5oWt2TGx9r0oZfX8zcBZkPEBf5neV5GyFL31zJTO+at1KZe2t6WD4gmpBM89vSjr/mpdH9PeuCmT37WbW96U5SumbDfL7JYOZR+8X658J9jGOVm+Xc2zQ6LXfy/c/POp10WFysflM2YV+WGw7Hm5oopvv36usa7e5uS7/moAAAC4tQh3zpiX7FhSyucHZHzOzFJy50pSS47IMasmqVbRQUvFo4oKNrWKikkqOl2rePNC1ooyPGke63D1rN5WRrJebVtelo6npbY8Y62jw9yi2l5aRjuM6lVWQbC5fk5y3uO8lM+poDV9xtr3nKyoMJtMpU15N9VUeLOO25zaL+9x98fUFwTx8Pq3xgFZ+Af3e0HsV39oZunw+D0VGu96WD7eGIDlqjxz5Zw89f1m888XfvCfVLA8KD9LjRwAAEBfIdztKrupnz/t2lDGU4OSUv+kJ8LPp2vWkuq/1AP+alsRhMCGuXXRETB1n66zSksqqcLX2Gz4+epZtSRYJ6omldfMw5CCFFQYKswVQk0zvWaoe6Ii6+3C2C4c0z3j9dkT+d5f3zQzjHevyn98W+T9P2lGvHz3prygJ7tpptckFAAAAP2GcLermk0qg8mu5eo9XQMVfr7dfl5dE9fu+ezmot0IQt1sym8yqievGeott/fHdG8Foe5heSNoAsoInAAAAH2JcOcKr1YtKSOP9q4nWEuTSK8mqyaXX9TBrSy6VWf6SKiX3jYFzR9VaNpi37ldtQvHdM9Ea+gCkRq9x+5+WA6//bI8Rd85AACAvke46yO5V8oqcbXr66XlpOgNijLbdgTKbTUHHcpaP5eXpWcykqxdloteE8aCjF9Q+xMa9EQxI0u2jOLZhVBQVNvp1Cyz8OJlFTE79+trOU5TS3LKG2Fzq7Z6THc6WmYv3ZTJv7jqjWzZvMH5AVl4/8NylwpzX270w1Pu+ofyWKN/nVnHlMKuysobavXk/VsftRMAAAC7jnDXTyaHZWZZJHPW6v9l3QLAG5nyfDnUR2z2ocve6JrbakK4VpSVI8G2ZiUjJZkZGFexzlD7k5guidj97ibEG8UyaJbZ6EM3oWsB9WiZwfbscJSTYbWdmgqKje0cWfFH2NTzQrdEUObGZSDyOkO3J4gep2dEFr1RMZuCWyG03lYhHMx6fkw3tPGtEBohzRvh0l5P5PAH26ynR7n8zlVr2UkZe0fNs0bdfOGtc/LlN+znOSHyvXOy/Lae13qbg89+Xy2Th+UL5rlCzwcAAIBbKvHI0Sfq5nHfeunSc+ZR7+hQMjtWUUFlWEWP/UbfU06FuevFeDWThGN0TWdWUsszW+6jiU44poBz9P1kzW2H3OjrjX6nsoN5hDii5g4AAAAAHEDNHdqg5g4AAACtqLmLN2ru0EZBxgdiNnIlAAAAgA0R7gAAAADAAYQ7AAAAAHAA4Q4AAAAAHEC4AwAAAAAHEO4AAAAAwAGEOwAAAABwAOEOAAAAABxAuAMAAAAABxDuAAAAAMABhDsAAAAAcADhDgAAAAAcQLjrIF+qSr2+KvOmDKB7fH56j2MKuGe+XJd6dUnypgwAO0W46wdTS1KtV2VpypT31Lys1tUfn3KXl5QLq+oCtMO+esvqsrpgyi3856qW4vln7rG7T8r6g59uTF+/wyy44/HQ/PUHT8rCbWbZLvL353H5jCkDAABgfyPcYRM5GU4kJJHOmfIOTA5LQm1reNKU+4kKcF+4V2T5yudk8Fv+9Ks/NMt++Hxj3uB3rpqZAAAAwN4i3AFd+Mzfv1/kjZdl8l0zAwAAAIgZwl1fMU0kzRRu3piXpWpr88lwe35/nWpV993R29DNJ5vbbDaHNNsy872pQ7NMvx9QsF6b/kBek1JrO2pqaZZpmmvW61lJq2JybNZaP2jiafapXd+ETs09g+1utz+D1dzy4+9V5feGm182mmVuQbRp57fvPmCWWG4blW9b64SbXh6QhQ/4879wr/7Z++Xj9rrvUyEUAAAA+xLhrm8kJXN2VFZ0E0k1zSzXJD2xvX54yeuL3jaKa81t6u0lx7ImnBVkfMB/nkRiRko1b2YLHexmx0RK02bd6YqcmNDxzDI3LgPedvTykrTdlGmumUgUpayKteUZU9bTgIzP6ZXUPj2rfj6ZkWw01B5Xz7lW7H1zT6u55ZffUOU3rOaXamo0y+ySDnbhpp3Py/fuVWHPDmQ6UB5+WOT1c43n+fIbKsB9YFQe81a4KZPf9ec/9fpNVb4qXzbredP3aRYKAACwXxHu+kj5/LAEPd8KmUUVhJKSesDM2IJaRUcotb2Kilq1iheoCtcq3rzuzUt2LKmC2BkTvhQV5M6okLhr5i7KZbX59BGrfnAhK5lkTUrn2vQJDELjwLiKhreaCmj3HpAr3zlnNe28Kr+q++i99+HGACyP/c3LMnjlnDzzlg5uvs/+pVrnrkNy2JQBAACAdgh3uyrcjLJt08Gu1aTymnkYB1ODklL/VK6FY9PWQ+JWFGT8goqiQycaNZbzR9Lq0FyWi0HAjKs7DqtwdlPe+BtTDvzwilyRA/Len/CLL7yrQp2aXrCbZn6QppYAAADYHOFuV5mRJq2pL0eKjJPJFa/GcuTRvNef78SQSPlCHGrmeiQIdYcPyf83aGrJCJwAAADoAuEO2zO3LrqOLnVfeKiS/H26Pm835aRo+gcuPTqiYl5ZVvohMEdq6BoiNXqfuedhucvr2/e8fNafBQAAAHSFcOeMglx8tSYyNNocsXJhVbJD5nHPBSHrVHNQl6klOTWWNIXtyMnKmkjyoWMbjm7p9zdMS8br81ds9ENssdPRMnvqqnz59Zty+IP2Dc7vl6/rJpfRWyy897A1OqZZp40XfvCf5G21fHQbo3YCAADAPYQ7hxQyA1JcS0s26ON3ZEWVzcItsW+FMCsZndeGsqasJnNbBP18M8simbNm/tmULJ73B2tpsG+FcDYjelPpCVNWU7QPYi49IyXJyGzwM23WCUKgqIi3mNnFBpkb3QqhMXqlYq3n9487IGOHTfnBZph74a1z8tTrYi17XN6vR8W0Rrj87PfPyfLb9u0NDsvKt56XK94tD+xbIijvrsiHvnNVBcZgXTXZ+wUAAIB9JfHI0Sfq5nHfeunSc+ZR7/jD/FekmGiOUIm40OFThc7rRUmkeXfiiM9P73FMAffoe9FmD5VkJhajOgPdUdnBPEIcUXOH/rPR7Q8AAACAfYqaO/QRfWuJrOjbpJfPM/IoAADAXqPmLt6ouUMfad5agmAHAAAAhBHuAAAAAMABhDsAAAAAcADhDgAAAAAcQLgDAAAAAAcQ7gAAAADAAYQ7AAAAAHAA4Q4AAAAAHEC4AwAAAAAHEO4AAAAAwAGEOwAAAABwAOEOAAAAABxAuOsgX6pKvb4q86YMoHt8fnqPYwq4Z75cl3p1SfKmDAA7Rbhz0rys1tUfjHJvLwPbXVz689RzNaaYXnwurKp9q8rSlCnvmvvl6w9+WtaD6QOj8pg3/4AsfMCar6f33e8t2V3+/nz77gOmDAAAAFcR7pyUk+FEQhLpnCnvDv2N4+xYRYr6ucxUXEtLVoW81QWz0r6iA9zjcviN52XwW5/zp++uyAvespsy+V0z71vnZPltbyYAAADQM4Q7bM/UkpwYEimfH1ZRsimX1gFPJH18HzYzue1++fm7bsryjatmBgAAALB3CHcxF20KGW6fn5elatD80jy2m0i2a5apQlnVa55omm6aqV1Nm/dcwTrqOdNm/mZ0wEsMjEtBF7zn09sPP1+11Cb6mXUbz9mhiWdov9TUblvh5qIbNRUN9mu7TTat5paHH5a7VHnssNX0stEscysiTTsffFw+Y5Y0Rdc5KQu3mUXaHY83fvawKt5178nO6wIAAMAJhLuYK2QWpaxi1agXvvIyeEj9k0z5QWvqmIwka1I6p+vOCjI+EDSPnJFSTa/QSVIyZ0dlxTSlnFmuSXoiHG50gMoOlZtNLi+kJDuWNEuVuYtyWT1HeqK7JpjpiebzJaZLImOz4VCm+8SdzUjlvFlHTTPL6jlDwcwPsNlDJZkJtpUoSiWyLR3sZsdEStNmnemKnJjoNppuldXc8srL8rYqL18Jml+qqdEss1s6tIWbdj71+kH5uB3IbhuVb7esow7pYSsE/jBY9rxcUcW3Xz/XWFc3C518118NAAAA7iDcxV5ZKipEpe7T4SUtKRXmarWUDOog9kBKxbSKrM95K26J3ZzSD5BJST1gZrRrcjk57DW3bDJh8ryKnirgbVZLFtrW3LicUYEyOZY166rQdjwtteUZGZ70ZnjCwVZZyEomqQJnUCvoyUlRb+uhY2or2rwXQmvLZ2Q8OC7m+doz/RMTA831b6HH7n5YDr/9sjz1/WbTzhfeWpTltw/I2D3BACxX5Zkr58Lr/OA/qWB5UH6WGjkAAIB9i3C3q8JNEfW09YFGCrJ+XVfWpVW4GZX02qKceVVk5NG85O9LidQqKgBtVU0qr5mH7XihsXWdsk6ZUSr0BTVtfo2hP6BKuKlk67YK1yrq/yakeqFVvcax2dCxqtezXg2lH2xVBNSvV83R27fXm9U1io3azEG1VZHKtWb80/zni7sD8ljygMg7NyO1fapcuylyu1qui++qsp7spplek1AAAADsZ4S7XRXUCjUnu2aqW7lXVHw7NCjzKtzUKmUvqOiwl1aJqPbqRasW61bza/N0DV+zJq17ZatJpj0NZKxXWLObZNpTeGAXtwWh7mF5I2gC6jUJBQAAwH5GuOsHr1WklhyREw+JXH5RBZ3JFSkfOuE1nYzWUPWEfj67maahw6TPHsilG63b8msdL8tFrymk3/Q0fWTj7Xm1b+o4HNto4JO5dfHqBE1tX8Cv9Yu7SA1dQ7hGr9F0k75zAAAAsBDu+oEXWJKSTAb961QY0uXNmldu19y4LOrbGUxY/ecWViWrwqSvIOMXyiJDWWvkTsOsV75g94uLbGtqSU7pfnGNWsfm9loGWalbTTwni1Kq6cFgWgdZafb1M33wxk41B4gxz9feTkfL7K0X3npZrtz1sHzBusH5Y3efkLHoLRbu+ofyWKN/3QFZeH+nZplXZeUNtXry/m2M2gkAAIB+QrjrCzlZ0YOZNPrX+f3wmjVfmn0rhFnJ6Cyjw5fpl9Z9LZvPv1+d1b/teMULTQ1eX7sZKUlGZoN19DSR8kapjDY/LZ9fkdFgnbMZkeWZcHNLvT0zimZzW+KN1tlcL2j2afe7m5WRV2dCzTILmQGZWRYVAs06Z1OyeH7rPRO7s/GtEL5+h1nNXu/BkyqsqVnvDW5XoKZGmLsqv6pHuLSWfeHeN+XLVi3dC2+dky+/YT/PCZHv6Ruj63mttzn47PfVMlGBMXguNTX3CwAAAK5IPHL0ibp53LdeuvScedQ7/nD6KtDsq75cu0Dfu87c4mA7/Q3Rn/j89B7HFHCPd9shfXuf0CjQQLyp7GAeIY6ouQMAAAAAB1Bzh91FzR0AAIAzqLmLN2rusLvmxmUgQbADAAAAdhvhDgAAAAAcQLgDAAAAAAcQ7gAAAADAAYQ7AAAAAHAA4Q4AAAAAHEC4AwAAAAAHEO4AAAAAwAGEOwAAAABwAOEOAAAAABxAuAMAAAAABxDuAAAAAMABhLsO8qWq1OurMm/KALrH56f3OKaAe+bLdalXlyRvygCwU4Q7dO3H/9sV+bkv/lt5jyk3HZO7n31Nfu7ZL8mPmzlRnX82avNt9bWpJanW67K6YMo7Ni+ranv1Mpf8AAAA+x3hDj1wUd565gH5f575hPytmbN9vdzWfpCT4URCEumcKQMAAGC/ItwBAAAAgAMId33kPf/Ta/JzX2xOg//tMbOkyW/+uME6935JBr+4InffOyMpa73Uh81yS+j5nv2S/ISZH4juT2tTStPEUi0b/uU7VTktP2uv/z/N+Kspm28r0NymP+nXYhYZ3jHQP//hf2ut16lJaF6WqnWp77SppGluqbfjT+G+UX5/KTX/bEaSqpyeaL+u1/8iNN80u/SmqixN6bWa+9yY2jTL9J5T9+VYWLXWbdNnK7Lv1dK8v32aegIAAPQVwl1f8APNz97zh7L6yQfk/9HTv/5DkV/+16HwpkPN8C+L/Od/bdb55FfkHbWOHaJ8d8pP/+YvyF+aba3+hx/IPb8eDkk6bP3sUFn+NHi+bx6Un/UCWtOP/pfgeR6QP10zM0NME0vzHCLW9vT0v8z6qymbb0vTx+Ffy0+LdRy+9p/Va2kTTg/8kgyP/InZ5m/Kf76pguVu9ePT4UiFtsr5hCR0E0k1FdfSkvWCkt9NvpAZ8JdNl6SmymVr3URiWIJGlbm0P29mWa+lt3FCKtNmvelFWffWKsj4QPCzM1LSq3aSzMjskRVrXbXNUOd9FR7VvsvyjFknIYuprGR0AgUAAEBfIdz1gw//j/LTB1Qwsvuhvf4J+Z4KTHc+8KsmsMzIPSp83fjaqLz1ujdDmZXK18oiQ4+31G7d+Np/Jz8yj//23z0vN1Tg+8n3mxn3fkn+wVB4Hfnj/26D0LVH2h0Hs1/3/Eo0uKn1GuFRhcxvquNw4GBL7aMdlIYnzayteiDl1cbZdEgrLpfkTKZg5mxHTUrTAzI+Z4pzOckFj7tWlmKjP556rRfUcUimVGz05Usn1OOyLFr7mUsX1RwAAAD0G8LdrrKb1PnTdpr+/fj7flrk5pvyN6Yc+Nt/N9oceOTDvyD3yA/kr7/nLWr64z8JBzdPm/Vs7z+ofqJ1nb+5rmvfbp33jKhI0uY4/Ohym+DWZr1dMzksifPlSFPLqgy+OK7i1E5UZH3LYS6iVtkwqKVTKpaurTRqDn1lqWxUGwgAAIBYItztKjOSoTVtp3boJw6Fm0MihnTAs97nmWWRzNlms8x4ysvgIfMQAAAAfY9w1wfa1kwpjYFDdKFtDZ3SqUZvI997U/1E67ZudcjsdBw61ejtnXlZioS4QuaM1xcumQoaQMZRQS6+qnZyaDQyyEpadIUeAAAA+gvhrh/88f/WOiDIvV+S9//ynfKD175u+p/Nyo2WgVFmJPXrKlysPW/1w+vC65+Qv9D92H7dGmHyw/9WfnbIPN6Gv/2/vqUCY1r+fptRObvW7jiY/brxze3eF2+no2Xqn89KZmw2XEs3dUxGVEAqvxK5/9zcRbms8lT6SDxGoixkFqWsB26xRsacL2cbffIAAADQPwh3fcEfdfJPb/ySDAdD+//mL8k7X3tA1v/dRbOO3wdv9T+IN3qkP/z/k3L7f/jN0KiU3dKjV/7pmnXrgl95U/7UG/Gyyb59gRf89AiVwfrRkSlVYFz/WlkFxubP2Ot0ty19HH5T/rNYy379p73RQSt/7K1wC5gBWaZLIirgNfrcmdEzW5vh6vWLUh7KNtdt3OKgeSuE2TFddeaPuBldxw6k9fqsP7Klvb0t3cIgJ8N6BE/r509UihuPwAkAAIBYSjxy9Im6edy3Xrr0nHnUO/oeYbNjFSlaw9QDbtEhUYXD60VJNEbU1PRAQFlJLc/IwDZH++Tz03scU8A9+gu97KGSzAzsdAAuYO+o7GAeIY6ouQP2LXNrhKFsqElqu9sjAAAAIP6ouQP2u4VVqU/YvezK1A4BAIC2qLmLN2rugP0uchuHBMEOAACgLxHuAAAAAMABhDsAAAAAcADhDgAAAAAcQLgDAAAAAAcQ7gAAAADAAYQ7AAAAAHAA4Q4AAAAAHEC4AwAAAAAHEO4AAAAAwAGEOwAAAABwAOEOAAAAABxAuOsgX6pKvb4q86YMoHt8fnqPYwq4Z75cl3p1SfKmDAA7RbgDAAAAAAcQ7gAAAADAAYQ7AAAAAHAA4Q4AAAAAHEC4AwAAAAAHEO4AAAAAwAGEOwAAAABwAOEOAAAAABxAuAMAAAAABxDuAAAAAMABhDsAAAAAcADhDgAAAAAcQLgDAAAAAAckHjn6RN087lsvXXrOPAIAAACwW1R2MI8QR9TcAQAAAIADCHcAAAAA4ADCHQAAAAA4gHAHAAAAAA4g3AEAAACAAwh3AAAAAOAAwh0AAAAAOIBwBwAAAAAOINwBAAAAgAMIdwAAAADgAMIdAAAAADiAcAcAAAAADiDcdZAvVaVeX5V5Uwbiyv9drcvqgplhCZZVS3kzZ2/w+ek9jingnvlyXerVJdnbMzQAlxHu9qnOf1DyslRVy1Qg6DztswvMqSWpqtfdLjzdcmrfTo0lpXw+IcOTZp6lkBmQxPmyJMdOydKUmQkAAAAnEe4QUZDxgYQkEmaaLklNzdXhoTEvMSw5f2XcUiqIP5ORZK0kxTbBrmGyKKVaUjInqfMBAABwGeFuLyys0uwCvTd1TEaSKnhfGFeRfCMFufiqiuhDJ6i9AwAAcBjhrl/ogGg1jVxdmJdV9W9LX6rIeuFQ6f+Mnp8dUsVkRmatdbfVL8s0WWw8X6TJpt/8s9pYZ3XBavZZbq4ZNBOdN33E2m0r4K3bWCe6383X6E36OexjYh+PTfY96K9WP5sRlaEkPdFhXW/71XBwijbljDyX3ufG9vVkHYt2TWPb9qd7dETtV00qr5kZGyi8eFmtmZSRRzu9x83njGXzUwAAAGyKcNcPdDCYSFtNI2ekcjwrabM44IWFiZSUpptNKIvXVYBrBJqcDAfz11SxVpIZU9bTQGbj+p8WOtSo4FOxmmzOLKck2xLKLssZb1lNBaRTIs+qdc+XW2uSVNg8IWca2yqupSPb8gNI9pC930WpjM1aAS94jTNS0u1Jh7JSP15prD9zYd1fzey7LM+Y7Zjns8Kf119NL+tF09S5cRnwfq4o6pVLUu3zbGqxsb3iK/5qfjidlcz1YmOZfv6UCpbR0JVO6chZkfU5v7yhuXW1pnreVPS3BgAAAK4g3O2KSM2LCmbhWrJILc8m5k9G+1UVZPxZP3A0zUvWG1hjQMati/3cObVeckSO9bw5nnqNx9NSU+HIHsijkFlU4SUto3YQub7uNRssXNPxwoSR1yqR/VfUazxjBcxcWgehtJwIgttCVjLJshQH7GaIOSmq0Jh86FgjlIXoAGutX5jMeY/zr6nwND0Tfr5XVOxKplpC865YU8+fbsbDnNovLV86IWm9z9YyHQwXVRhPHwnX7g0eUv/UKl5Y3FxZKi0H3Nbsa9luYBYAAADEH+FuV0QGJdG1VKFasnAA25h/EV979aIVaBRTE9MwNSgp9U+46aCavCaFSUk94K/WO2nRFUe6Bir0fHW/RjF1X9uotTETApv8QBLUNuXv816hZEPPV5dZFWo7hrKWbfoKc2qumgp2c0kdwvdIrdI+knm1cZHmsnrymtEeGmwfYLeiF9sAAABALBHuYs8PUd2phZpk2tNu1caEmyo2py038exWKCTb0xabSQah7mxKFoNt6BAeB7pWL/TazBSqsSzI+nX1T9c1jeb3qEPYBQAAQP8j3MVeTlbW1DV8tNmhqalr8GryNhowo9f8WrVwU8EdaqlV8gNJ+RU/tnnNOnvUxNRr6uqFqHjd1qGsD+rQaKTPYnveuuq3YLCb42F+XzrVGAIAAKD/Ee72wuRwpNZla/x+cxk51Rg0JO/f38yUfKbv2dhsaOCNYETG6GAcfv+ynQSlgoxfUNsYyoZHqzQjU25r5M3Qa1QBrKybeJZlJah1DO7XdrZ1kJVt3Vg9FKLmZbVTs8y5i3J5oyA7uaL20g7W7d6f7gR9Fu2BXbx907WMoXlqXTMCZjdNboORNS+/2Om3sNlPlNEyAQAA+hPhrh/okRbPq/jQ6N82K6kL/qiLNm90R7We3e9u9qHLXjPGlmaZKnDOLIsKSs11w8Pxd0GH1umSiN3vbkKkqJ5vW80yayVZlFONbWWHympbds2a35fRH0XTPJ86FiOv6hEvg/WCWyHMSkanKz1aZrCuFY5yaT2apr2dUVnxRrLU86JBUT+vWmZvKzQoTk6GQ8fhlMiFyIA3jb59fp/EUF/F0HHXo32qfRO7311WRDd/jX5BEITO4+HQ1yovxx5SB2NtcQt9PQEAANBvEo8cfaJuHvetly49Zx71jq7xmh2rRMLFraDDSlZSyzPhwKTDgrkNgQujG+p713m3ONhBDee+1M3vga5N9W6RsZWBfHYmPp8fd3BMAffwtw/9SGUH8whxRM1d7AXNLU+Fbp/QensE7Etz43LGu39ghxude/c+1LesOEOtHQAAgOOouesT/rf2Vi8uPWqkQ9/08e0lAABA/FFzF2+EOwAAAABdIdzFG80yAQAAAMABhDsAAAAAcADhDgAAAAAcQLgDAAAAAAcQ7gAAAADAAYQ7AAAAAHAA4Q4AAAAAHEC4AwAAAAAHEO4AAAAAwAGEOwAAAABwAOEOAAAAABxAuOsgX6pKvb4q86YMQJuX1XpdqqW8KSNeeH8A50wtSVV9rlcXTBkANkC46zv3y9cf/LSsB9MHRuUxb/4BWfiANV9P77vfW7K7/P359t0HTBkAAADArUC46ys6wD0uh994Xga/9Tl/+u6KvOAtuymT3zXzvnVOlt/2ZgIAAADYJwh3/eS2++Xn77opyzeumhkAAAAA4CPcxZ7V3PLww3KXKo8dtppeNpplbkWkaeeDj8tnzBLbZ95nrxNpennH442fPayKd9170lr3pCzc5q8GAAAAYG8Q7mLPam555WV5W5WXrwTNL9XUaJbZLR3swk07n3r9oHw8FMj8QPnx916VLwfPo55bVID7+h1mlR8GP/+8XFHFt18/19iebhY6+a6/GgAAAIC9QbjbZx67+2E5/PbL8tT3m007X3hrUZbfPiBj9zQHYHnhe+fkqSvPy2dNWd69Kv/xbZH3/yQDpwAAAABxRLjbVw7IY0kVzt65GantU+XaTZHb1fKg/K6e7KaZJ2XsLm8hAAAAgBgi3KGtINT92jtBc0tG4AQAAADijHC3r0Rr6AKRGr3bRuXX3uv37fvQW2p9AAAAALFHuNtnXnjrZbly18PyBesG54/dfULGWm6xcEB+/s5m/zp/HVMIuSorb4jclbx/G6N2AgAAAOgVwl3sbXwrhMbolfZ6Qf+49wa3K1BTI8xdlV/VI1xay75w75vyZXuEy3dX5EPfuRq6vcGzsihPvX7Tmxe6JYLy2e+fk2VRgdGsq6fmfgEAAADYC4lHjj5RN4/71kuXnjOPeidfqsrsWEWKiWHJmXkA5mW1npXU8owMZApmHuKD9wdwztSSVM9mpHI+IcOTZh5wC6nsYB4hjqi5AwAAAAAHUHMHAAAAoCvU3MUbNXcAAAAA4ADCHQAAAAA4gHAHAAAAAA4g3AEAAACAAwh3AAAAAOAAwh0AAAAAOIBwBwAAAAAOINwBAAAAgAMIdwAAAADgAMIdAAAAADiAcAcAAAAADiDcAQAAAIADCHcd5EtVqddXZd6UgW7Nl+vqd6cqS1NmhsVfVpfVBTOj78zLqtr/ailvytg5jingnKklqfb1uR5AvyLc7VNeyKguSdvLyU5/lBZWO4aW3snLUnWDfWth1i+3i+Gbb2vD47Ad6hhlh2pSmh6Q8Tkzz5JLJ2RmuSbpCb44AAAAQG8R7hAzBRkfSEhiYFw92qlebqsb87I6kRZZW2wb7AKFzKKUJS0nqKkBAABADxHu9oKu8epl7RDiaWFURbaalM7lzIxOcrKyJpIcy1J7BwAAgJ4h3PULr0lkvTGtLnTopxNZLxwq/Z/R87NDqpjMyKy17lb7/LRr0hjtq+ivU/WaeernWF0wTSV12WpKGfRFa0wdw3DzNeipWkqb+U2bb6u74+C/lnbNUM3PR5qCzh/R+1KR9Q1q7QK5V8rq/2kZ7dgfI9jH3W4GCwAAAFcQ7vqB7gM3kZby+YQkEnqakcrxrIoGYV4YmUhJaTpYLyHF6yq4NMJNToaD+WuqWCvJjCnraSCzW40XL8sZtX2/r9kpkWfV851X4WboRCO46L5ojX3W+9aWDjzqda8VG+suprKSSZrFxubb6u44FDJnpFRLSuZkOMTlSyfUsS9LMW3X0OVl8JD6p1ZRS7rwWkVq6p/Ufe0jLAAAALBVhLtdYdVO6Un3wwrVDm2tNmb+ZEaSKoAUJ80M3Zfs2ZIXDprmJTuWVAEwPJBH7pxaLzkix7ZR+5OesF5D8Dq24/q61+etcK2i/m9qtky42Yp2oSqXLnYXpralIBdfVXs5NKqObsA/zrXlooqItrSkdMg0r3VTc+vqSGwkCKDtB2YBAAAAogh3u8IM5BHUBulaqlDt0FYu2P0aodqrF8OhIRoOpgYlpf5pCWRnVTBU/6Ue8FfbimZNoZn067iF0jo9tdSMlaWy1ZS4BS2Dn5h+dZdf7E0tZzK1zcAMAAAARBDuYs/UCHVFD8EfCWRmGm7U+mFrzOAnDx1TMTsvS8dVGGs7GqYJmYcG1VpdMGG8Vrm1gRkAAADuINzFnh0uLCYcNHg1eUkZedTdPlxlnZ6SKRV3bVsJv9vjN23NSLZ0TEbUc5VfaTcaZkHWr6t/WvavgwdS6t0SqVzrTQ0gAAAAQLjbC5PDO7rXWhAuTjVGs8zL0jO6uaUtJ8XlmiTHZkM3H/dHfGy9Ibk3WuM2++IFWrYxtSSnxnYvaQVNJLOhUTZbB5bZiq6Ow9y4LKqAnR6L9n0M80fATMlgF8fUH1mzLCsda1QZLRMAAABbQ7jrBypcDJwve8HN70s3K6kLrQOJFDIDXr84u9/d7EOXvb5+Lc0yVeCcWRbJnG2uGx3af1PRbTwjsqgC5nbYty9ouT1BaLRP9bqHso11T1SKUoo8ZXfbMro8Dn5wU3HswgYhfXJFvSeto2u2mpdRtV+tg7IAAAAA25d45OgTdfO4b7106TnzqHd0jdfsWEWKieFbfAHuD/+fWp4J36pA3x7hbEYq5+lPtxe6/n3Q9xn0bkfRedCc+PxubUeH30fsAMcUcA5/o+EwlR3MI8QRNXexFzS3PBVqntd6ewTsnk63P2hjcliKa0nJnG3fnFLXKs56t6zox2AHAACAOKPmrk/4tT1WfzZ9a4Ud9ONDd3QY85p26hunh25aDgAAsP9QcxdvhDsAAAAAXSHcxRvNMgEAAADAAYQ7AAAAAHAA4Q4AAAAAHEC4AwAAAAAHEO4AAAAAwAGEOwAAAABwAOEOAAAAABxAuAMAAAAABxDuAAAAAMABhDsAAAAAcADhDgAAAAAcQLjrIF+qSr2+KvOmDECbl9V6XaqlvCkjXnh/AOdMLUlVfa5XF0wZADZAuOs798vXH/y0rAfTB0blMW/+AVn4gDVfT++731uyu/z9+fbdB0wZAAAAwK1AuOsrOsA9LoffeF4Gv/U5f/ruirzgLbspk9818751Tpbf9mYCAAAA2CcId/3ktvvl5++6Kcs3rpoZAAAAAOAj3MWe1dzy8MNylyqPHbaaXjaaZW5FpGnng4/LZ8wS22feZ68TaXp5x+ONnz2sinfde9Ja96Qs3OavBgAAAGBvEO5iz2pueeVleVuVl68EzS/V1GiW2S0d7MJNO596/aB8PBTI/ED58fdelS8Hz6OeW1SA+/odZpUfBj//vFxRxbdfP9fYnm4WOvmuvxoAAACAvUG422ceu/thOfz2y/LU95tNO194a1GW3z4gY/c0B2B54Xvn5Kkrz8tnTVnevSr/8W2R9/8kA6cAAAAAcUS421cOyGNJFc7euRmp7VPl2k2R29XyoPyunuymmSdl7C5vIQAAAIAYItyhrSDU/do7QXNLRuAEAAAA4oxwt69Ea+gCkRq920bl197r9+370FtqfQAAAACxR7jbZ15462W5ctfD8gXrBueP3X1CxlpusXBAfv7OZv86fx1TCLkqK2+I3JW8fxujdgIAAADoFcJd7G18K4TG6JX2ekH/uPcGtytQUyPMXZVf1SNcWsu+cO+b8mV7hMt3V+RD37kaur3Bs7IoT71+05sXuiWC8tnvn5NlUYHRrKun5n4BAAAA2AuJR44+UTeP+9ZLl54zj3onX6rK7FhFiolhyZl5AOZltZ6V1PKMDGQKZh7ig/cHcM7UklTPZqRyPiHDk2YecAup7GAeIY6ouQMAAAAAB1BzBwAAAKAr1NzFGzV3AAAAAOAAwh0AAAAAOIBwBwAAAAAOINwBAAAAgAMIdwAAAADgAMIdAAAAADiAcAcAAAAADiDcAQAAAIADCHcAAAAA4ADCHQAAAAA4gHAHAAAAAA4g3AEAAACAAwh3HeRLVanXV2XelIGemlqSar0u9XKb37BgWXVJ8mZWfMzLqtq3ail+ewaN9wdwjvmbsLpgygCwAcLdPjVf7hQeoheHulyVpSlTXFhVodcqe/KyVN2FMNL2ufz9q1tTPC9kN7rIVsfrmYwk14qSSOfMPMvcuAwkilJOZuQUF+kAAADoEuEOETlZWRNJptJ+cWpQUpKUkUf9kJG/LyVSuywX57yiUZDxgYQkBsbVo13kfXuZldTyjCQS6vn0NF0SGZuNaS1Xe/nSKckka1I61ybYNeSkuFyT5FhWxUQAAABgc4S7vaBroPoofJQrNZFDg97+5h8dUdGuGfbSKVW6vr67Ia6D+ZMZSdZKciZjPbuu5VIBr5bMSLYvmqzk5dhD6hiuLcp4KCC3Krx4WWqSlhPU3gEAAKALhLt+4TVRbDZFXF3o0Owvsl44VDabNGaHVFEFollr3WBbhWsVneZUrPDDXHlZhScv7OVl8JBIrVL21vOadlo/v1Ezz9UF03TTrNuuuaLfzzFYZwv9Hb1mjAkZnvSLQZPT+U23F94nPbXt07DhMTWCfnJm6tg3YuqYjKhsFxzDDc1dlMsqZycfOtbmuGrN/acvBgAAAAh3/UAHh4m0lM+bpoiJGakcz3rhy+aFo4mUlKaD9RJSvK4CXCOM5GQ4mL+mirWSzJiyngaCGrHXKqIyhaLDXE0qL65LxYQ9rXLNXy+Xtp5Hb28D6YlTIs+a9c+XJTk2Gwoket9nx6S579MVOaFesy33igpEOpC2DZERar0Tcsbav7RkQwFPh85ZyVwvNtbRTTxTE+GgtPkxVfT7czYj0mgu2v798TygG7k2j+HGCrJ+Xf1jHXsAAACgE8LdrojUCOmQEqoliw4SsrGgOWLR1Ex5fdyeLZkAFpiX7FhSBcCBUHO/3DndZHFEjm3h+WROhTlJyeBUWlLJiqzPlaVSC8oq7L1m1tuC2vKZ5n5NFqWkdj51XxCP/H0PrTM3LmeWw69QJoe94FSS9jWOIZHmm7l0UcoqIgVNHPOlE5LW4dYe0EQ956IKqekjQQTs7pi2Nhdt9/74vD6Lakm3x9BrItuR6euoAmVQawkAAID9i3C3K5oX3d50vhypJQuHhY2ZppCvXlRbtXgBzOINfKJryJqhx5vOquCh/ks94K/WPfUzj6pt1ioqFOkaJFM2S7dqw5oqs+/RdbzmoS1aj62uBWxpdtnSL1AHVF0J5teBeX0HI81S9eQ1VzX9Dbs7pv770/J80fdnR3SwNg8BAACADgh3sadry8zDTdVCzQftaWs1O34QSj00IkkTWnQNkldWkWW962C6B3Rtnh5QRR2n0a32O9O3ImhzrMKjfvbqmPr8wNp92PZCaNyOOQAAAGKJcBd75tYE0UE1TK1Sg1dT1Lxlwc74fb2SyWRj4A8dSnRZzVDRr8dMLVezmabPb8JotL3n3QaC2rcGPySXX/GbYXrNHYdGw7V9UV0dU9MvLvp80fcnYPozRl9re6ZWcDeOOQAAAJxDuNsLunZpB/eA8/t42Te0NjfBNiVfcF+01oFKdFPC6GiK/uAknfviBX29Gk0lg0FWduU2CMG+n2qGt6klOTVmvUKvn15SMmejr8Uci1CfRCV0vETmy3qAk7KsmHUKmUVVSks2NDiLGU3UGoCmm2Pa3ftjBCNgBvcR3Egwsma0SW4Do2UCAACgiXDXD/RQ/42+ZfpiflZSF/QAIWGFzIDXB83uIzb70GWvr19LE0IVOGeWxQtLwbr1crMey28+aA38YWrX7CH87VshtNxaoZsRLS1630P7czYli7qvYoPpaxd5ffpYeCNeRsOzCnuLcqqxXnaoLMXEsIprAT1yaHRwlqyIHpHU2lZXx9Tca8+7mbq3Tvv3x1eQi6/qWsMTm9ZC+vcYLMuifV8/AAAAoIPEI0efqJvHfeulS8+ZR73jD81fiQSCW0HXJmUltTzTvFWBZobfr6gwwkiJYTp0Zg+VZGYHtaW7S9e4mVBqj9YZ0uF9v+Xiul/w8f4AzuHvPWJGZQfzCHFEzV3stWmyqLTeHgH9w9wqYSgbqi1t0H/I1QW6vlWDfTsHAAAAYCPU3PUJvybR6sWlb60Q25qpWyv+NXcAAAD9iZq7eCPcAQAAAOgK4S7eaJYJAAAAAA4g3AEAAACAAwh3AAAAAOAAwh0AAAAAOIBwBwAAAAAOINwBAAAAgAMIdwAAAADgAMIdAAAAADiAcAcAAAAADiDcAQAAAIADCHcAAAAA4ADCXQf5UlXq9VWZN2UA2rys1utSLeVNGfHC+wM4Z2pJqupzvbpgygCwAcJd37lfvv7gp2U9mD4wKo958w/Iwges+Xp63/3ekt3l78+37z5gygAAAABuBcJdX9EB7nE5/MbzMvitz/nTd1fkBW/ZTZn8rpn3rXOy/LY3EwAAAMA+QbjrJ7fdLz9/101ZvnHVzAAAAAAAH+Eu9qzmlocflrtUeeyw1fSy0SxzKyJNOx98XD5jltg+8z57nUjTyzseb/zsYVW8696T1ronZeE2fzUAAAAAe4NwF3tWc8srL8vbqrx8JWh+qaZGs8xu6WAXbtr51OsH5eOhQOYHyo+/96p8OXge9dyiAtzX7zCr/DD4+efliiq+/fq5xvZ0s9DJd/3VAAAAAOwNwt0+89jdD8vht1+Wp77fbNr5wluLsvz2ARm7pzkAywvfOydPXXlePmvK8u5V+Y9vi7z/Jxk4BQAAAIgjwt2+ckAeS6pw9s7NSG2fKtduityulgfld/VkN808KWN3eQsBAAAAxBDhDm0Foe7X3gmaWzICJwAAABBnhLt9JVpDF4jU6N02Kr/2Xr9v34feUusDAAAAiD3C3T7zwlsvy5W7HpYvWDc4f+zuEzLWcouFA/Lzdzb71/nrmELIVVl5Q+Su5P3bGLUTAAAAQK8Q7mJv41shNEavtNcL+se9N7hdgZoaYe6q/Koe4dJa9oV735Qv2yNcvrsiH/rO1dDtDZ6VRXnq9ZvevNAtEZTPfv+cLIsKjGZdPTX3CwAAAMBeSDxy9Im6edy3Xrr0nHnUO/lSVWbHKlJMDEvOzAMwL6v1rKSWZ2QgUzDzEB+8P4BzppakejYjlfMJGZ4084BbSGUH8whxRM0dAAAAADiAmjsAAAAAXaHmLt6ouQMAAAAABxDuAAAAAMABhDsAAAAAcADhDgAAAAAcQLgDAAAAAAcQ7gAAAADAAYQ7AAAAAHAA4Q4AAAAAHEC4AwAAAAAHEO4AAAAAwAGEOwAAAABwAOEOAAAAABxAuOsgX6pKvb4q86YM9NTUklTrdamX2/yGBcuqS5I3s+JjXlbVvlVL8dszaLw/gHPM34TVBVMGgA0Q7vap+XI34cG/UKw3pqosTZlFe2FhtfNzess2+mPX/UWuH+T38rXlZemZjCTXipJI58w8y9y4DCSKUk5m5BQX6QAAAOgS4Q7teeEpK6nlGUkkEt40syySORuTbw8nh719Gp405R0oZAbUtgZkfM7M2GX50inJJGtSOtcm2DXkpLhck+RYltpjAAAAdIVwtxd0UIplE7tO8rJ0PC2yVpSBTMHM80NQcU0kfbyfXkvc5OXYQ0l1bBc3DZOFFy9LTdJygto7AAAAdIFw1y9MM8RgWl3o0Owwsl44VDabWWaHVDGZkVlr3ca2FrIda5Zy6YQkBsalEfmiz9fSh8x/ztUFFRirbZ7L4jePDNZp098x6ItmTS21iI39yapYpF7i2Ky1vtX0MrrfGzTLDO9Xm3339kv/fLgZa9sazqljMqKyXa1SNjM2MHdRLtfUa3joWIcw3Tym9MUAAAAA4a4f6PAwkZbyeb95ZCIxI5XjfnixeSFkIiWl6WC9hBSvqwDXCHg5GQ7mr6lirSQzpqynoJYuf19K/b8i65s1U9QBKbJfpUPZtrWU6YlTIs+a9c6XvdBlBxK977Nj0tz36YqcUNsO8fqiBctLonJPK9NcM6H7rKlizWpWGmp62VhPTWp/OmnZL7Xdig6MLSE2KZmzo7JitjmzXFOvuU1gfCCl1lRH91qzRrSzgqxfV/8kUy3vNQAAABBFuNsV4VoqHYDCtWRbG7xj/mRGkiqIFRv9ywoy/mw03MxLdiypgla471junFovOSLHtjpYSK3ihaPO/KabOjw1+72Z/VKvNRupSaotn7GCVVFKaudT9wUR0N/30DoqyJ1RAenWandMVUDWYXDoRMt7WD4/rJb6CplFdfySknrAzDD84FyTymt+eTPlykbHQB3vAT9M9qLvIQAAAPob4W5XNC+6GzVDoVqyrQzekZfBQ+rHX72otmqZW5eKeeiZGhQdG9ITVqjU01kVDNuEjE1tVltkmhe21ECZpoTN4ObbsKbK7Ht0ncK10Cvcewuj6hi0CWKTK22CW/eBbetSMrjVcA4AAIB9h3AXe2lJ6XZ8XamFmmTa01ZqdvxQRaDYDf6x7T5sp703v4smsgAAANj3CHexl5OVNRUHooNqmNquBq8mLykjj0Z7u22D12wyKZmT0X5lprmp7lPXoYauY43eRkwtZHRbfhPGW6htDZ3SqUavG69V1E+2OW5t+bW2mzeRBQAAAAh3e0MP3mGPMLlFfr85+4bWKmTpm2Cbki+4L1rrQCW6eWZ0NMXcKyoudOyLZ/rODWVDI0POl2f9UTSf1a9FrXMhOjCK2a9Q/8BuBPt+qtmPbWpJTo11XWXZRodQvCX+foUHRpmXVd2HsotbGbQVjICZ6mKIlGBkzWiT3IZm305GywQAAADhrh/oUSLNCJN+X7pZSV3wR4O0eTfjVuvZ/e5mH7rs9fVraZapAmdwU/Jg3dAIkN7IlGZkSLM8O1SWYnTEydDzqfB3vbitIKv3PbQ/Z1OyqPsq2uxbIXh9CcN9DFsCbHpGShK+3UNjHftWCN6onHq0y2C9Zphr2a/gxu7pjW5AvpGCXHxVpbs2A7JE5R8dUXtVlkXrXoMAAABAJ4lHjj5RN4/71kuXnjOPescfAr+iwkxzBMRbQ987zQ8U9g3FvaCjAk7lPCMl9h9d42aCcMeQ2OF9v+Xiul/w8f4AzuHvPWJGZQfzCHFEzV3stWmyqLTeHgH9o9nstfV+eYpXQ5mVtHp/z3CBDgAAgC5Rc9cn/JpEqw+avrXCDvrxAQAAAFtFzV28UXPXJ7z+dPbtDQh2AAAAACyEOwAAAABwAOEOAAAAABxAuAMAAAAABxDuAAAAAMABhDsAAAAAcADhDgAAAAAcQLgDAAAAAAcQ7gAAAADAAYQ7AAAAAHAA4Q4AAAAAHEC4AwAAAAAHEO46yJeqUq+vyrwpA9DmZbVel2opb8qIF94fwDVcjwDYCsKda6aWpKou7lYXTHnH/IvFepk/KwAAAECcEe6wiZwMJxKSSOdMGQAAAEAcEe4AAAAAwAGEu35hmlvWG1O4/b3fJl/NP5uRpCqnJ9qvO1+OzjfNLr2pKktTeq28LFXt9dTUplmm95zVJckvrFrrtukXENn3amne3z5NPQEAAICeIdz1Ax2OVGirnE9IQjeRVFNxLS1ZLyj5AycUMgP+sumS1FS5bK2bSAxL0Kgyl/bnzSzrtfQ2Tkhl2qw3vSjr3loFGR8IfnZGSnrVTpIZmT2yYq2rtqkDn1ns9dlT+y7LM2adhCymspLRCRQAAABAzxDu+sEDKa82zqZDWnG5JGcyBTNnO2pSmh6Q8TlTnMtJLnjctbIUG/3xVCi8UFaBL6Vioy9fOqEel2XR2s9cuqjmAAAAAOglwl0/mByWxPlypKllVQZfHFdxaicqsr7lMBdRq2wY1NIpFUvXVho1h76yVDaqDQQAAACwZYS7fqEDnmnWqKeZZZHM2bjfzyovg4fMQwAAAAC7inDXF+ZlKRLiCpkzXl+4ZCpoABlHBbn4qtrJodHIICtp0RV6AAAAAHqHcBd7euTKrGTGZsO1dFPHZEQFpPIrkfvPzV2UyypPpY/EYyTKQmZRynrgFmtkzPlyttEnDwAAAEBvEO5iz4xcOV0SUQGv0efOjJ45PGlWa9DrF6U8lA31z/NvcdC8FcLsmK4680fcjK4TvhXCrD+ypb29Ld3CICfDegRP6+dPVIobj8AJAAAAYMsId/1iblwGrD53emoNdgEVqELrNkfEDG6F0DpZo2YGgbLtemoyo2N6t18YiAzq4vUNDG69YELiyfXQvg9kxGuWWaswZiYAAADQK4Q77CJza4ShrKwumFlKu9sjAAAAANiZxCNHn6ibx33rpUvPmUeIpYVVqU/YvezKUrRurA4AAID+oLKDeYQ4ouYOuy9yG4dms00AAAAAvUK4AwAAAAAHEO4AAAAAwAGEOwAAAABwAOEOAAAAABxAuAMAAAAABxDuAAAAAMABhDsAAAAAcADhDgAAAAAcQLgDAAAAAAcQ7gAAAADAAYQ7AAAAAHAA4Q4AAAAAHEC4AwAAAAAHEO4AAAAAwAGEu04WVqVeXZK8KQLOe+yTcvrpJ2XUFBEzvD+Ac0affFpOf+qjpgQAO0e4AwAAAAAHEO4AAAAAwAGJR44+UTeP+9ZLl54zj3YiL0vVWckkTbFFTUrTAzI+Z4pA3xuVJ58+KoO3m2KLd2T9m5+Xr7xiithjvD+Aez4qnzw9IveYUqsbcvn0F+X3TQmII5UdzCPEEeGuE93n7nhFZgbGpWBm2XQ7+aP2Vdc763Lp81+RFVP0tZ7Eb7x6Wr74gikYH/3UaRk5aAram5fl9O9ETu1HnpSnf2VQms/Y/sJur7fVy+Ow59uK6THtblu9PKaG7tOV/qvOy3FrbfL+8Dvvi+s5KZ7HtLttxfWY9vXvvOG9hjtXOy4H4ohwF2+Eu042CXeAcwh38cb7AziHcId+RLiLN/rcAQAAAIADqLkDAAAA0BVq7uKNmjsAAAAAcADhDgAAAAAcQLgDAAAAAAcQ7gAAAADAAYQ7AAAAAHAA4Q4AAAAAHEC4AwAAAAAHEO4AAAAAwAGEOwAAAABwAOEOAAAAABxAuAMAAAAABxDuAAAAAMABhDsAAAAAcADhDgAAAAAcQLgDAAAAAAcQ7gAAAADAAYQ7AAAAAHAA4Q4AAAAAHEC4AwAAAAAHEO4AAAAAwAGEOwAAAABwAOEOAAAAABxAuAMAAAAABxDuAAAAAMABhDsAAAAAcADhDgAAAAAc4Fy4+/Ef/3H5e3/v75kSAAAAdkpfW+lrLADxlnjk6BN187hvvXTpOTlw4KD8k3/yT2V8/KgkkwNmCQAAAHqhVqvK0tIl+T//z6/LzZs3zVzsNyo7mEeIo//iA//V8GnzuG/9WOJv5X/4Hybkv/lv/oncfju1dgAAAL2mr7GGh/+hHDr0Prl+vSJvvUXA249UdjCPEEd93yzz7/7u72R09BflF37hH5k5AAAA2C36musf/aNRU8J+opvm6mtvxFffh7vbbvtx+bmfe9CUAAAAsNsOH36APnj70O23v0d+7McYjzHOnHh3fvqnf8Y8AgAAwG5LpX7KPMJ+MnD3e80jxFXfh7v/9//9O/nrv/kbUwIAAMBu+8u/rMrf/u3fmhL2i4MHD5lHiCsnau7+7PU/l5/8ydtNCQAAALvpT/7k/2ceYb/QA6kcINzFnhPhbnW1LN+vvEHAAwAA2GXf/var8gd/sGxK2A90sGOUzP7gxH3utIMHD8hwOi0/c+/75M477/Q6e9brf6cmJ14eAADALfPXf/3X8hd/UZE/+ZP/S/7wD5fle9973SyBi/RgOXrwFN3HTjfFpMaufzgT7myJRMILdXqoVkb0AQAA2Jng2gr7A9fQ/cvJdy04+fBLCQAAsHMEu/2Fa+j+xTsHAAAAAA4g3AEAAACAAwh3AAAAAOAAwh0AAAAAOIBwBwAAAAAOINwBAAAAgAO8cKfvXeLz/22WfSxnuXnk/5/l3r8BlrPcPPL/z3Lv3wDLWW4e+f9nufdvgOUsN4/8/7Pc+zfA8u0t/zF92xJ97xL//iX6X7usH7Oc5SxnOctZzvJwmeXhMsvDZZaHyywPl1keLrM8XN7ZcqtZZjgNUqYcRjmMchjlMMphlMMoh1EOoxxGOYxyGOWwhPwXH/iv0qcjtXpC2f+XsvmHsnlg/qFsHph/KJsH5h/K5oH5h7J5YP6hbB6YfyibB+YfyuaB+YeyeWD+oWwemH8omwfmH+9fkf8/fYxUo6stt/gAAAAASUVORK5CYII=;" vertex="1" parent="1">
          <mxGeometry x="20" y="190" width="493.4" height="440" as="geometry" />
        </mxCell>
        <mxCell id="UpKuaX4kH1bP3X0iJl6V-6" value="" style="shape=image;verticalLabelPosition=bottom;labelBackgroundColor=default;verticalAlign=top;aspect=fixed;imageAspect=0;image=data:image/png,iVBORw0KGgoAAAANSUhEUgAAApIAAAMZCAYAAACziNTJAAAAAXNSR0IArs4c6QAAAARnQU1BAACxjwv8YQUAAAAJcEhZcwAAEnQAABJ0Ad5mH3gAAFImSURBVHhe7f0NbF13nh92/+7u7I5nMpOldsZPxLzsWumk1eXzuImEfbIQ9y2iDA2idGxM7RToblFDIjtJ4xaITBVxEWEgDLxPHJSUCnSclykpwUF2i6ZShR03Goxg0pudWQnPNqDTGCDVbFq5STb0wt6Q+0x249lm5z7nnPu/vOdekiL5tyzykp/P4IzPyz3nnnPvuYff+/uf/1XjqdPPtSLDyr96L/7NB78T3xffHz/48cfi+77v+9ISAAAehu9973vxe9/9IL4Xvx+feOwPxKEffjwt2Ruy0t977y3H7/3ed+OTn/h0PPaJTwqRAAAfgTJjlVmrzFxl9ioz2F6y4wRYViK/9/u/Hx//+CfSHAAAPmpl9iozWJnF9oodB8myOVuIBAB49MoMVmaxvWJHQbJspy/viQQAYHeUWazMZHvBjoJko9GoOtYAALA7yixWZrK9YMdBUscaAIDdU2axgQySAADQsePfkVxd+a00BgDwYM3m0Xj8s72/ffgr3/pWGiPX0KHPpLHdJUgCAA/d45/9bBEim/Ef/odfTHPaHn/8s/Erv/Kt+Ntf++/THHIIkgDAvvTTP/VT8Rf+wn9WjfeHxr/wpf8sfvqnfyree+/9qjL5P//PN9MSdkKQBAD2pV/4u38n/vbfbofHsiJZ9gtppbRRViRvFOFxaWmpCJVfir98/sX2AnZEkNyWPxv/1d98pjgj/2L8N99OswCAPats0v5v/9vL8Zf/cjsgls3breJ/jeJ/pffef68Ikfe6jzs/Ge+9t91/qWU8fv7v/kw8kabi//oH8XN/dTZN7DUfbYbZK0FSr20A4CPx3vvt5utvfevb1X/LoQyRedohMr7xn8bP/Sft4e/Hz8Qv/Px4Ws5ueMRBskznf6cqeZfD1178s2l+eXKk+X/zr8XP/82/Ff/VT6ZFAMCB9xMv/r/j8YX/If7qL6QZhV/8q0Wg/Ma/jJ8oJ37ypfhaJ0v83b8WP1s9IuJnf/7vxM///F9byx6d4PkTL/6t3hD6c8Vj/uZL7W111LdZW1at27e9tnqe+ekYSnNLm68z2B5pkPyJF5+JP/Wv/kH6JvE/xC9/5k8Wb3QZLn+mOjmq+b/w2/H4p9MKAACFH/3MJ+O93/xGmqr59jfiV8sA9xdH4r1OtbJ42J+rBb8n4p+uZY9/9MM/Ez//cxG/evl/jXd+9HMpcBZZ5CcPxT/6hVeKbXUU836uu82/8etPxF8qA2AROP/S8ZX4+9X22lXRdmHsAXmmXOcz/2vah/Y65T7sB480SP7qr70Tv/OjnTL0N4pvEq/EL8YfjqFP/0b88uV0cnz7f4tf/057FABgSz/5eDz+ncW41alW/sKvxD8q4uNoat18Z7FzH+U34r/59m/EEyNlDpmNWwuH4s+UIfAn/2T8iXgn7tTvZazmdbf5q5f/YlX9PPuHDsXvLPxKkV/afvEbixF/4k8WoXXzPPOzI3+kSMJF/kkVyT/3oxGP/6FOq+xge7RN299+Jb5UpvHFz6Wyb18JGQBgA//Xb/3uQw9fZYGrDIE/+6efiPj1/61WjdzEt78R/ySN7tTvdCqVafhSJ3AOuEcbJH/yz7aD4y/81/Fzf2sxfufTPxQ/Gv8yVr/zR9rfCErlNwBN2wBATdkU/d7x/7inSbi8/7EqSpXVvxiJM51lP/fT8adqFcZ2BbJUNmH/kW6FMq33544XOfLX+oJd3zarexyL54oyfB7/6e49mH92JIXQzfPMLy7+RvyBtXXKJvB6P5HB9gh//qd84f7j+FO1kPjON/7TdNNsrTv/d36jeOsPxWrVXb5cx8//AMCgqP/8T9lrezMP/ed/yo4xf3Ek/kA18Rvx9/+T/7pqfi7D5v+zmH7iR/9ItaT/J4PKgFjdv7jRzwjVt/mdxfgb/3n7HspqneOfLOf2bW+zPNO7Tlmd/LAVSb8juSnhEQAGVScgvvzz/58H/tRPXpDcuSpILnYKV+tttXyvEiQ3JUgCwCAr/xnE8ofIO+r/sk2pnP5sESQfxb+5vXlQTNXDWqVxkAiSAMC+1Wwejcc/+3g1Xv+XbUrl9Pvvv/8hfpwcQRIAgCz+iUQAAAaaIAkAQBZBEgCALIIkAABZBEkAALIIkgAAZNnxz/+8cft6GgMAYDcU+S2N7S4VSQAAsgiSAABkESQBAMgiSAIAkEWQBAAgiyAJAEAWQRIAgCyCJAAAWQRJAACyCJIAAGQRJAEAyCJIAgCQRZAEACCLIAkAQBZBEgCALIIkAABZBEkAALIIkgAAZBEkAQDIIkgCAJBFkAQAIMsuBMnJmFtpxeLVNFlpz1uZn0zTH53J+ZVotVobDIsxkx6ztZlYbK3E3Pk0+ZEon6O7f4/itTmwri5Ga2WuOAsL5+diZe1caL8Hvefqh9Cz7bpHdP5Xz1+cT0u9ezCz1D3PukNnP9v7tn55MfRt56CpriWd12DdOfTwrg89z9PjIZ+f/cpj6n/Py6FznAPvUVzHB8/G14Ni2MHnffNzdpf1ndPrPzvrr3e78be3eg8G6Pp64CqS02OHotFoFMOFmF+NWLpWjpfDSEykx+wFM0vjMfzmhbRvjTg0Np2W8NC9vRyrQ8PRLMefHI6hGI4j5R+X80eKsaW4c65cMPgmv3C8OLbC0dH1Yfbe7Nq5Vg4X3hyO8SowTMepQ2n+i/OxWrwes53HNffSJ+bRm35nOeLwkSpUTT4xHFE/h1YX4taVcmLQ1d7vznDoVHFWsK/1XQ+qYT983s+NpONp//3vN7M0FWPv1o/9Qiwcm3rkoW6iOViv954Nkuu/FfV+c+xZXv+GXP/GUc6vTW/vm3v6lj+fqjed7dSWtVrjxR+MoRi7nJaXj69vu1P5Wbess345lMdTm65O1O63ofGjxd+lk8UJnJZ3vxXVt9FZr1fva9f/jbvvG9cAfev5yFy5H8spPJaBYLW4wAw/WcyvAsFy8ac02fR9bet93WuVx856l8eKs6YZ42uP6X9vztTe2/WVy83O+Z4qe/F+dqfr25+MM8eGYvXN+eJ4mjG6xWdh+vWFbrhmY7UvIM0iR66uds+hePd+N2z1VEH63/PNP8+d93HqZBH/j453H1O/3pWe2Oha1bHZ5713/uLV2vS6bWyu59zrOWe3uta1bXodTx54Lev7PK6rHPUtr4bquTv7ssV1nA10zpPae53O7/K12+45m38ta793G/99bus9J/s/bw8yE6PF392lu/UAl75I10PdZp/nLbJHe7/6r+vpeKrzrv6ZKYba56Sr93O7V+zJIFm+4OOH5+NC7VvB7LWX41T6hl+ehOPR/dYw++5YTHVe9M43jmvFn/+hYv6JO2uPG9lBZal5LOLlar3ZWCq2c7G6SE3ESGderMb8i+3t9my7vHhdPh4LnWUvzsfw2c7JVl+/vICNxp20fvtE7VR/+qulnYpkeaLVK5XFdooPa/3iV7029dfuxYU4frnz/OVJOBXH3+qsXzzP4XHN5sW7sbw6VIXHMhAsvFXEyicmewPBA9/X9a/77L0iMHbOySun4lBap6ei1zi0dk6Xhk4Op/OhfP9r6xcedM53quwX3ixOmuJ8uBgvp8fVtn/+TBwfWo2F10/FnXvFcZ7Y6CLVNfOlIvTWQzTrrX0BmYwjh5eL86b9BaQ5XAT25fTKlX9Mzkb3Pb+2XHzuO39MHvx57nlf6xWivorgxteq0oM+773XmubZixFf2Xj7mymv01Mnl9eOrapir/2h3Opa9+BzuvTAa1n1eRyL5c41svhsxcmL3T/q5WtbX14O12ZjtnrubVzH2UT7vOle34rX+Wyz+ltVvnbbOWc/9LWssNk5v/6cjBj78vovKBsr/w6Un4X+sFfzoM/zFtljeuzl6rpe/xI/Of9sNFfnY7Y67zrnZTr+ddqf53rFdK8YkKbt6Zg4t3YaFt8aig//17rfECa+VvyB3qi5rvyjnVkeXrrZOfEnqj+8Q8Pbq81UzYf3bnRP+iJE3Lg3FMe/sP5UXrq20+b09onWbeZun/hl6GlLr81Xan8IqhCTPoRVmFiKG2vrFxeFm8Vl/tiZbX7Q9qvpuP9u+TrOVIHg/uvLxUSzJxBs9b5WTRG1i+VS+cakZs/tWn1zNp0P03Hrrfr6Ozjni4vSyxvcBlHtf2punbhbHFP/uvXqQTGMHy0+O5owt9D5AtIs4uRy3Hqn/AJSnkMRy++0X7mZE83a+1o4N1v7Y7LV53l7Nr1W7eDzvvpm94t6r3oFvRw6f2TbFe76NWyjP5Qd6691W53TW1zL0pezteBXhfr2l8FNnZvo2wc21Xc96K+kTTTbX3rKqm75RWj7AfzDX8tKm53z7SBaOyfL20+23bKSvlxdi55zvl5oefDnuW6j7NG+rje/2Am26TO0dixbSJ/n3EzzUdqTQbI8GapvKbU3c63qVt231tsc0W4y3MAuVFTK8LH+j3Ja2GM1lt9OozvULd0X307qB169NkUQ2vAPQqG6/6/vD0PxbZLiY1/8BR8aHq1ev6Xyj1IR4o4U8zuBYFvva60prWraeVh2cs7Xm1TXpGbtt261l527U3wu+i5+6+6J2lv3DO9N6QvIieK8KV/3t8svIOVZ0/lsl5XK4u9Y7RaVdZ/Zwqaf5w9rB5/3znm+Xr2CXj8vivC8bl87X8jWxdT117qtzumtrmVJWd1qr182U9cVIb1qNahtf4Omczax5fWgHeDK93bh9W3FoLYPfS3bjloTcc7ft7X7KMthNpaLz287TG7v81zZJHtMj92IpaHjcaasnF8dL9bdwT34/bda7SG7FiQ3+ta9djE7PxlLZYWn82amC0IVJqtvnv0Xt3LYG3/4ykCyWusk0xkeTmeZ9gekW+5vN0utqd3r11Wuk5qDynu6im953VsG0qDy1P7merQZzeritVS8jmMxVnxz7vwB3Op9rf6gfbnT3LJZ00SmD3vOV99k6xfA9h/drZq32Vr1BaQ4b6KsXJfv09HivBnqBKB2sKrfotIZ2hWcLT7PH9ZH+nlvV097tf/Qbh5Ka7Y6p7e6lqUvbaN3O+uVzdS9JuNW+5aSNFTFCWHy4bi6WLVazO+o6bjwYa9lW2h/KavdRlE2M29Tte6682MiZotrebviudXneTvKAN5uyVpX3dxK7Z7svWYXgmS7vDt0cry4LCQ9yby4WFyeiqm+Unr3W235RvTeP9Y+eR5wX8ND127S2qi5uuyksO5eneKC91DuQ7w6WpxEtaaqFBC62idp/YPdvgcj9SC9cisWioDUvYcqBSAX1/aHtPhPuyk7NS0Xl7xOReTB72vZXFOcFWtNFO0K4DrVRXTjpr8H+3DnfLtZuy9QlBfYDW8HYSeqLyCFdnhKVZpa1aC8jaDnnqsUgKovxVt+ntvaX3Iy3quP9POemulqxzY5f3EHFZatzukHX8s653T73rJC9Vp2lduaKv6OrLvu9lS5Nr+O8yDFta+6L3IkTpW3M/SdY6XNz9kPdy17sE6Hwm44K8PadrU7GPbep1se6/jJobUOOA/8PG9TuY3yS/340R1Wc8vPc9+983vGU6efa+1kKFZ5KENx8rS6VlrFH+ie5cUFr0fxRm2+fGWuVZzG7WVXiz/vGyguKNXy3uetW2wVb0/xmJlirPf5qudamlmbrobzc8Ved/Xs36bL2tteZ23/J1tzG+5eZ9/WH/dMOp51+9tRf22qoe85+o/rwA5973t5HvW/dg96z3vOu+J8vpoe2//69j+uOu/b70nnHC2H6jzte/7N3tfNzun2/rWPq77t9tCdv+H5vTZsdk4WnDvpnOhev6r3YlvveXvYzud5o8e13/vtXKs2+7xvfa1p73dteoOh99yrP3ara1172Oyc3nr5+uNqP7b2+vZ9Xjfa/gM/0wd06HnN66pzJ72v9XMsvYb915gHvbebLXvwtawctjjn172faX87z9HzWaxZ24f1n4t158Rmn+dNtr3+2pueo/4aVsMmn5n6c/Tt30YZbTeGRvl/xQ5u2xu3r6cxAAB2Q5Hf0tjuGpBe2wAA7DWCJAAAWQRJAACyCJIAAGQRJAEAyCJIAgCQRZAEACCLIAkAQBZBEgCALIIkAABZBEkAALIIkgAAZBEkAQDIIkgCAJBFkAQAIIsgCQBAFkESAIAsgiQAAFkESQAAsgiSAABkESQBAMgiSAIAkEWQBAAgiyAJAEAWQRIAgCyCJAAAWQRJAACyCJIAAGQRJAEAyCJIAgCQRZAEACCLIAkAQBZBEgCALIIkAABZDmaQPD8XK63FmEmTMPCc0wycyZhbacXi1TQJB92AXsdVJAEAyCJIAgCQRZAEACCLIAkAQBZBEgCALIIkAABZBEkAALIIkgAAZBEkAQDIIkgCAJCl8dTp51ppfFveuH09jQEAsBuK/JbGdpeKJAAAWQRJAACyCJIAAGQRJAEAyCJIAgCQRZAEACCLIAkAQBZBEgCALIIkAABZBEkAALIczCB5fi5WWosxkybZPybnV6LVasXi1TSj4+rixvP3C+c0A2cy5lb28WcSdmpAr+MqkvvKTCy2VmLufJrsKEPUylxx2S70nKjl4x/ehbwKcUsbfQTafzBW5qs9+OgUx3bxZMT8i40YOZfmdZwbica1pWieFbYA4GERJA+Ct5djdWg4muX4k8MxFMNxpAyb548UY0txpz90DaiZL43F0L0bcepKmtHv3GzMrzbj2Y860ALAASFI7iWp+bU9LMbiUvHfngpfu7K39pi1Ze3KYqs1XoTFoRi73H1MVW28cj+WU3icfGI4Vlcjhp8s5pehcnW5iJJJz/Ovr2zOlPuztrxb2es0J0+dHIo4Ot59TKcKuuZM2s/e9ds2O7bu9jvzu9P1fZyJ0aMRS3cn0vRGpuPWW6sxdOxM334BADkEyb2ibHI+O1w1yzYaxfBiEf2KYNRVBq2pOP7WhfbyxoWYPzyemosnYqSaN1uEwtXuNoqh3cS7FMurQ1V4bA5HLLxVbPuJySpUxrv3i3hVKEPk2YjZtF7j2nIRSLthrwyR44fn40JaPnuvGeMp7E2PHarmXXizSKj3Zteeu3HoVHvbydDJ4bhTLSv2fbW7/oOPrW/7RVC9GC+nxx3qVh+r6upqLL+dpjcx/c5ysSOpOgsAfCiC5B4x+YXjvc2yV07FjXtpvHT+TBwfWoobY51oNh2nbi5ts7o2HfffjSI8zsSRw8tx//UiTA03i1A5FKvL7XrkzIlmrL45W0TSJDUDj6b7JyeavcFwabkIdYeP7Kiy191+uzK4tv5Ojm11Pl5ee1xN1WS/XalpHwD4UATJQVEFpWaMd5p4y+Hs9utqZfAbGh4tItRyLJVN3UWIO1LMX36nDGWTRcAsK4ZT3W23pmKsP5lVHXXay6tm7IdlJ8fWqaD2K+8DTaNbK8L0ZvdRAgDbJkjuEdOvL8Tq0We79/wVoe3ZetN2GZRWu03La0Nf8/Fmqibdo81oVkFsqYhSYzF2tNMU3K5YLl3r23YxdHo/V/dHfjni5TS/amZ+WD7ksVWq+0DbzfcPUjXn1+8LBQCyCZJ7xZVTcai6LzFV5C4Px3K9afvKrVgowt/FWo/jKtz1dGhp3wt5/AsbNDinil27KTs1LdcqcxN3+34aJ1Uf2z8NlDqy3OwEu8k4c2x9RbIdVkf7OtFsw7aObSsTcad4vZonHvTs7f1efevW9gMqALApQXKPqHoin7hTq8iNxJ1ifucexjL8nTp0IRaOdZufx2O2r2pXPOYr8xG1Juq134isKnadpuwU+uqVuep3FqPbvHz5eCys/R7jRIxUv8GYlrUuRtycj9WhsZiq9a4ut1F1wulsY9tB8MHHtlmv8P7fv5z4WrFP9apuv6vjMdZzLyYA8GE0njr9XCuNb8sbt6+nsQFWVtsuD8eNIqw96MdiHqlqn8rwlnoiV9NjsXxtgx/XZlNl6CwDZ9lM3/O6Vb3Sm+vn7xd78ZyGB2r/WsPwTdc4qOzwOl7ktzS2uw5mkNyrUtjp2LehBwD4UPZKkNS0vZeUzcu1ziZCJACwlwmSAABkESQBAMgiSAIAkEWQBAAgiyAJAEAWQRIAgCyCJAAAWQRJAACyCJIAAGQRJAEAyHIwg2T5D6O3FmMmTcLAO/F8vHTphXg6TcLeNxrPv3QpXngmTcJBN6DXcRVJAACyCJKwl6k0ArCHCZKwl919LV755r+OkUuX4pJACcAeI0jCXleGyTJICpQA7DGCJAyKTqB8K+L4fyFKArD7Gk+dfq6VxrfljdvX09gAK3ttXx6OG42RmEiz1jzzQlw69nia+CDuf/OVeO1umiyMPv9SnD7yWJp6LxYuvRpfT1PtXoinY23x+wtx6avdpVsvfzpeuHQ81p79/u145bU7aaq0xfIt9v3DHZtj371jT8r7JT9/JB7bYP/ayz4Vi/3zYc9qfy4+tXQpXv2lNAsOsh1ex4v8lsZ2lyCZZsGe9aAA2SFIMnAESegxoEFS0zbsZWsXlvLeSCERgL1FkIS9rLovUoAEYG8SJAEAyHIw75EEABhg7pEEAGCgCZIAAGQRJAEAyCJIAgCQRZAEACCLIAkAQBZBEgCALIIkAABZBEkAALIIkgAAZDmYQfL8XKy0FmMmTcLAc04zcCZjbqUVi1fTJBx0A3odV5EEACCLIAkAQBZBEgCALIIkAABZBEkAALIIkgAAZBEkAQDIIkgCAJBFkAQAIIsgCQBAlsZTp59rpfFteeP29TQGAMBuKPJbGttdKpIAAGQRJAEAyCJIAgCQRZAEACCLIAkAQBZBEgCALIIkAABZBEkAALIIkgAAZBEkAQDIIkgCAJDlYAbJ83Ox0lqMmTQJA885zcCZjLmVVixeTZNw0A3odVxFEgCALIIkAABZBEkAALIIkgAAZBEkAQDIIkgCAJBFkAQAIIsgCQBAFkESAIAsgiQAAFkaT51+rpXGt+WN29fTGAAAu6HIb2lsd6lIAgCQRZAEACCLIAkAQBZBEgCALIIkAABZBEkAALIIkgAAZBEkAQDIIkgCAJBFkAQAIMvBDJLn52KltRgzaRIGnnOaTUzOr0Sr1YrFq2lG0p6/EnPn04xHbjLmVtbvFxxYA3odV5EEBthMLG4Whq4uVgFq3bAyV0SY/eABx95R/GG6eDJi/sVGjJxL85LpsUNx4c2IsS/vl9cD2A2CJLCPLcVsoxGN+nDoVEynpfvdzJfGYujejTh1Jc3oMz12I5aGxmJcVRDIJEgCu6enargYi0vFf5fqDTvt5s+1x6wtK6tx5bzxaMZQjF3uPmYnTaWdZt/2UG9S6my/HMqqX226tn8z5f525m9Q6exZ3l89rJqxustX5vvW7lteDdVzb/fYZ2L0aBGl706k6Y1MxJ17Ec0T9dccYPsESWB3lEHp7HDV7FpVCl9cjuEi+HSVIXIqjr91IVUTL8T84fEUuCZipJo3G0ux2t1GMfQ34W6mDJFTJ5fXKpYX3hyO8bUwWd9+GdZG4056XKPZDmZlSByP2bXnnX13LKb6Qub44fm40FnvxYU4fjmFyfLYL4/F8rXOsvmIkxdrQbMIi/Xl5XBtNmar597msZ8/EsPF8uW30/QmlpZXIw4f0bwNZBEkgV0x+YXjvc2uV07FjXtpvHT+TBwfWoobY52G6Ok4dbOIdcfO7CD0NItw2K3YdauOk3Hm2FAsXRspYlnb9NjLMb/ajNENKpr1x7WV1b4ixH2tO3fia/OxenQ0bT8t/0qtGb04vkONQ+3jrcZrwe/K/VguAuvwk2l6I+cm+vZhC08OF1vcpqHh4pUC2DlBEtibqiDUFwTP7jTu9N8j2QmEzRhel7Km4/67EcNP9MfUDap6VbWvt1m5dXmsG9yq5ctxf5N7Ezu6Td9lM3XdRIy8OB/DZ2vb32knobeXiz3fptXl4pUC2DlBEtgV068vxOrRZ7vNuefn4tl603YZhFZrTcOd4aF0llmKskW312QcORyx/M42tl5VEDfoyNMJqtXy4TjS06O6vLex1rRdhMPRu531ymbqXpNxq6padrZdNZ3vJExup8pZaJaJ+t37B6YDEvBwCZLA7iibd68td6t6l4djud60feVWLMRYXKx1QqkqeD1hqgyEQ3H8Czuq1RWm49Zbq9E82+1gMzl/McaGluLOtu6xLDupNGO8dk9ku+NO9x7LO/eGen5aZ3L+2WiuLsStK8V42axfhOTZznNdHe2pSFb3b16eWt8BpyfwbXXs2+lIs50OOQCbEySBXVEFrxN31ipuZTXvTjF/dblTm5uOU4cuxMKxqbXm3apzS09FsnjMV8qOKt3HbLfXdvt3FMsONu312h1vOk3fm/SMroXYiWaj2JvxteedOrYQF9bWT8vLKmJ9edr36n7MIiR3lpWvw2wZ+s62K5blvrU74NSOvey4kzr6tG197O37NmtV3z7tcFsLtAA71Hjq9HOtNL4tb9y+nsYGWNVjcjhu1C76MNAG8Zyu9vl4LLyYOqBU0+2eytvtec3W2r3Ty45Fva9re375Y+Xp9X/k2r3yh296v6Gyw+t4kd/S2O46mEES2BvK35GsdaDpDzsAbGyvBElN28DuOTdSa9oWIgEGjSAJAEAWQRIAgCyCJAAAWQRJAACyCJIAAGQRJAEAyCJIAgCQRZAEACCLIAkAQBZBEgCALAczSJb/MHprMWbSJAw85zQDZzSef+lSvPBMmoSD7sTz8dKlF+LpNDkoVCQBAMgiSAKwA0/HC5deiudPpEngQBMkAdiBr8erlxbjU5+/FJcESjjwBEkAdqgMk2WQFCjhoBMkAciUAuU3l2P4Z56P0TQXODgaT51+rpXGt+WN29fT2AAre7heHo4bjZGYSLNgoD3onH7mhbh07PE08UHc/+Yr8drdNFkYff6lOH3ksTT1XixcerWIB10PXl72vD0da4vfX4hLX+1Ze4vl5f12x2Nt7+7fjldeu5OmSlss3+LYHPtHdewdnX3c4Pm31H59PrV0KV79pTQLDrKy1/bnPxWLG37W1ivyWxrbXYJkmgUDzTnNI/VhAmSHIAk9BjRIatoGYAfKEDkS//qb5b2RuSES2C8ESQB2oLwvUoAE2gRJAACyHMx7JAEABph7JAEAGGiCJAAAWQRJAACyCJIAAGQRJAEAyCJIAgCQRZAEACCLIAkAQBZBEgCALIIkAABZDmaQPD8XK63FmEmTMPCc0wycyZhbacXi1TQJB92AXsdVJAEAyCJIAgCQRZAEACCLIAkAQBZBEgCALIIkAABZBEkAALIIkgAAZBEkAQDIIkgCAJCl8dTp51ppfFveuH09jQEAsBuK/JbGdpeKJAAAWQRJAACyCJIAAGQRJAEAyCJIAgCQRZAEACCLIAkAQBZBEgCALIIkAABZBEkAALIIkgAAZDmYQfL8XKy0FmMmTcLAc04zcCZjbqUVi1fTJBx0A3odV5EEACCLIAkAQBZBEgCALIIkAABZBEkAALIIkgAAZBEkAQDIIkgCAJBFkAQAIIsgCQBAlsZTp59rpfFteeP29TQGAMBuKPJbGttdKpIAAGQRJAEAyCJIAgCQRZAEACCLIAkAQBZBEgCALIIkAABZBEkAALIIkgAAZBEkAQDIcjCD5Pm5WGktxkyahIHnnGbgTMbcSisWr6ZJ2BNmYrHVitbKXHGG1rXP1/XzH6IBvY6rSAJAv6uL0SoDRTWsxNz5NH8bZpZasTKfETeq59wkSJTLOiGmJ3C0g8/DCuST8yvRWtpoD9pBKuu4tqF8zbqvdzFsuA9beAhBbGZpPJr3ZqNx6FRMp3lt03Hq0IWYj7G4+BG9BoNKkASAHkU4Ozsc8y82otEoh0Nx6kpatFveXo7VoeFoluNPDsdQDMeRMtyeP1KMLcWdc+WCAVcGuOr1bsRsjG8eqj8qRRB99uhqzH9tIs3oV4TJm0sxdHL80e7XHidIAkCpqmiVFbHxIrANxdjlToWstyLZUz2rNXV25o8fjSJsTHUf01NdS02knWUbhKUjZVUwLV+rAF65H8spPE4+MRyrqxHDTxbzy1C5ulxEyWSLSmpv5a/73FUlspg3dXIo4mgZ4tJj1jXlnmk3/fat39Z3bLXj7my/M787vXG1d6J5IeZXm/FsrfrXs436ep337fJY8a41Y3yjxxQ2O/aOyS8cL17Lhbj1oC8N5+4Ur3UzRt2SsUaQBIDSlVNxqKyIvTgfq0VcmE3VsXpFsgwj41GrnL07FlMpME0007x7EatvXlh7TKPZqXCVQWsqxt7trt+4FkXwqYeaZhyPl9Oysvp1MYWhpVheHarCY3M4YuGtIlY+MVmFynj3frsZtgyRZ6O739eWizDc3Xa174fn40JaPnuvCF1p36fHDlXzLrxZJNRaZbC/iXfo5HDcqZa1g15n/c6xHX+rc9zF8sPja0G4Z/tFUL3YOcZNq73Tceut1Rg6dqYKsmWInDq5vHZsF96MGPtyCrnbfd82OfaO5nARojuv5abK96EI8cVrT5sgCQDbMhOjfU2fE18rwsvR0XXVrQ2dPxPHh4qgsxYsC+dGimAzEt05S3FjLEWZqvrVDo9lsLr/bhlgZuLI4eW4//pyMdGsws/qcrseOXOiWQTY2e62zs1WYa9TPauCbi0YLpWJ6PCRdhjbpu7220Fvbf10bGv7XiyvmoFTEOyxOh8vrz1uc9PvFMeYtINo93WqlnWa+rdh62OfLF7XNLoNQ8VrT5sgCQDbUd2PWG/yLoaqOXWb+puhd6gMP0PDo8U+FNsom7qLIHSkmL/8ThmP2kGop0m9NRVj/Tu31nyfmrEfluq+zXqzcjGc3SRsbVn1a6uqrT1Sj+oHbftBHnjs7aC+XZ3wjiAJANtT3adYbzrtDPWK4gPUO8x0VOFm/f16G6mqcEeb0ayC2FKxL2MxdnQ1lt+ullZBaOla/741YiR1xKnuEfxyxMtpftXM/LCUx7babTpeG9b1ft6uyThzbChW37pVrd++P3I0NasXw7WdBbntHPv2KrTNKFvA2+GdkiAJANsyEXf67q1rB5zeIFhVDjdq0r1yKxZ67issAs6XxmLo3p3tB9HiP+1qWGpaLuLk/XQf4MTdpWiere1LqsC1fxqobJYv9u1mJ9i1g1q/dljdZlN9XXlsfT+NU4W3zN9dnFkqq6mdpvIUKmvN9mUz/jpV0N+oI8w2j/31hSLoH48zG3T+WXN1tHiGfdJL/iERJAGgtFnv31rwK++1a/80TXvZ1LGFuNBXkZwee7n6vcGpdeun3yI83F2/6rhTv2fyQaqg1K2GVaGv3lRe3m9Zdd5Jz3v5eCy82KlITsTItTJopmWtixE354vg1O0sVCm2UXVE6Wxj20GwfWwLx7pN69WxpYpkp8d1f6/wnt+/rM1vd2jqvK7Ftr8yH1Frth+9O1scd7GfPfvXf4ydXtvbPPYrp+LGvaEY+9JmMXoy5r7Ydx8q0Xjq9HOtNL4tb9y+nsYGWHmxuDwcN7bbHAF7nXOagdPu5Tt8s9v0CruvvA9zPJplM31Ps3zqcV98Reid/xDt8Dpe5Lc0trsOZpAEABhgeyVIatoGACCLIAkAQBZBEgCALIIkAABZBEkAALIIkgAAZBEkAQDIIkgCAJBFkAQAIIsgCQBAFkESAIAsBzNIlv8wemsxZtIkDDznNANnMuZWWrF4NU3Cvjcaz790KV54Jk3uEyqSAABkESQBAHKdeD5euvRCPJ0mDxpBEgAg193X4pVv/usYuXQpLh3AQClIAgB8GGWYLIPkAQyUgiQAwMPQCZRvRRz/Lw5GlGw8dfq5VhrfljduX09jA6zs4Xp5OG40RmIizYKB5pxm4JS9tqdi+GYjRs6lWWuejhcuHY/H09QH92/HK6/dSVOFZ16IS8fWlsb9b74Sr91Nk4XR51+K00ceS1PvxcKlV+Praar04OVlz9rTsbb4/YW49NWetbdYvsW+f8hjc+x79diT8n7Jzx+JxzZ4/s42PrV0KV79pTTrQyjyWxrbXYJkmgUDzTnNwHlQkIQB88AA2bE/g6SmbQCAXFWI/FQsVvdGbhYi9y9BEgAgV3Vf5MELkB2CJAAAWQ7mPZIAAAPMPZIAAAw0QRIAgCyCJAAAWQRJAACyCJIAAGQRJAEAyCJIAgCQRZAEACCLIAkAQBZBEgCALAczSJ6fi5XWYsykSRh4zmkGzmTMrbRi8WqahINuQK/jKpIAAGQRJAEAyCJIAgCQRZAEACCLIAkAQBZBEgCALIIkAABZBEkAALIIkgAAZBEkAQDI0njq9HOtNL4tb9y+nsYAANgNRX5LY7tLRRIAgCyCJAAAWQRJAACyCJIAAGQRJAEAyCJIAgCQRZAEACCLIAkAQBZBEgCALIIkAABZBEkAALIczCB5fi5WWosxkyZh4DmnGTiTMbfSisWraRIOugG9jqtIAgCQRZAEACCLIAkAQBZBEgCALIIkAABZBEkAALIIkgAAZBEkAQDIIkgCAJBFkAQAIEvjqdPPtdL4trxx+3oaAwBgNxT5LY3tLhVJAACyCJIAAGQRJAEAyCJIAgCQRZAEACCLIAkAQBZBEgCALIIkAABZBEkAALIIkgAAZDmYQfL8XKy0FmMmTcLAc04zcCZjbqUVi1fTJBx0A3odV5EEgEdoZqkVK/OTaWp/2c/HxsYESQAAsgiSAPAIlNW6VqsV40cjhk5OVePVsFRrzKyaN9P8Yug2/Ze3AqzEykp7/sr8THVrQP0xk/Mrxbbm1ua3Wisxd769bM3VxbSsb3l9/spcTNamu/swE4udx5RDbb+3PrZy3d796VYv27c5dNZZvFqbLvel/fAHvDbsJkESAB6BiWYjGo1GzN6LWH3zQjVeDc2J9gPKoHT5eCy8mOa/OB/DZ+vhayiWb7bnx8lnI77SiAtvrkbzRC2IHj1eza/Wv7YcY5dr99yV4fBsxGzneevLz42keUvF04zF1Ik77eliGDlXPqAMguMxvLbfs7F0dHwtzG15bA80HacOlY+/EPOrEc2zF7vHcOhUsbSw5WvDbhEkAWAPmPzC8Ri6dyNOXUkzrpyKG/eG4vgXOjW51Vh+O43GctwvHjf9znLE4SPdql19/XOzRTBrxrPpnsWZE80i5M3GWrRLy0fXVfaWYnZdAJyIkSLAHRqrYl1hKZaL0Df8xNozPzSrb77cPYZk69eG3SJIAsAe0Bweijg6vtZ0Ww5lU3G+6bj/bhotouaRw33Nzq2pGCuecp3V5SImbqxqPn/Qug/B8judsNr18F8bHhZBEgD2gKXl1d5m4TR0q4A71Q6Pbe1QuXStd9vl0G663kr7/siL8XJar90M/ag8/NeGh0WQBIBHqAxFQ8fOdJujk+nXFyJOXqzd99cObzv6OZ2jz9Y60IzH2NBS3Ehha+LuUjTP1u6ZTJ1XttVp5epoNKO7rTh/Jo5vUJHc7NiKJbG8WmuKLp772R1UFB/Ka8NHQpAEgEdoeuzlmI+xmCqCUNVM2+nZfOVUHHpxIY5f7jTfjkdc22HV7V4RuL6c1j87HPMvjtTuiRyJxrWI8c7zps4rVUWy00v7bLPd2SY9Zi2oFevO3mt21/1yxI03i9B4cqoniG56bGWHmq+UnYRS03qx/sK9tKiIne1e2u3m8ubZtG79x7kfxmvDR6Lx1OnnWml8W964fT2NDbCq99dw3GjUPmAwyJzTDJwyPEzF8M3tNq2ylfL+xanhG9vsKc2es8PreJHf0tjuOphBEgD2GUHyYNkrQVLTNgDsA9Njh4RIHjlBEgCALIIkAABZBEkAALIIkgAAZBEkAQDIIkgCAJBFkAQAIIsgCQBAFkESAIAsgiQAAFkOZpAs/2H01mLMpEkYeM5pBs5kzK20YvFqmoSD7sTz8dKlF+LpNDkoVCQBAMgiSAKwt11djNaSejvsRYIkAHtTGSBbrWiduBON5kSaCewlgiQAe8rk/Eo7QH5xOS40GkIk7GGCJAB7x/m5uHhsoR0gD52K6TQb2JsaT51+rpXGt+WN29fT2AAre7heHo4bjZHwPZd9wTnNwCl7bU/F8M1GjJxLs5KyIjl1cihidT4ubBQmn3khLh17PE18EPe/+Uq8djdNFkaffylOH3ksTb0XC5deja+nqdKDl4/G8y+djrXF7y/Epa/2rL3F8qfjhUvHY23v7t+OV167k6ZKWyzf4tgc+z499lLZa/vzn4rFvv3eTJHf0tjuEiTTLBhozmkGzuZBck15j+TZZsS9Wc3b7H8DGiQ1bQOwN50biUbZxH13VK9t2KMESQD2tjJQqkjCniRIAgCQ5WDeIwkAMMDcIwkAwEATJAEAyCJIAgCQRZAEACCLIAkAQBZBEgCALIIkAABZBEkAALIIkgAAZBEkAQDIcjCD5Pm5WGktxkyahIHnnGbgTMbcSisWr6ZJOOgG9DquIgkAQBZBEgCALIIkAABZBEkAALIIkgAAZBEkAQDIIkgCAJBFkAQAIIsgCQBAFkESAIAsjadOP9dK49vyxu3raQwAgN1Q5Lc0trtUJAEAyCJIAgCQRZAEACCLIAkAQBZBEgCALIIkAABZBEkAALIIkgAAZBEkAQDIIkgCAJBFkAQAIMvBDJLn52KltRgzaRIGnnOagTMZcyutWLyaJuGgG9DruIokADwSM7HYegThuQokKzF3Pk1vZpPHTc6vRGtlroj661XLlnxlpUuQBID95MqpONQ4FKeupOkdmh47FI1Dp2I6TcODCJIA8Cg9UVYCW9Eqh3rl7+piXyWwrGB2KoblrQArsbLSXm9lfqa6NaAc71Q4q2phZ7ubVCRnljrLi/W+kGZW2rcarK3fV5HsbHvq5FDE0fF1j6u221/FLI9nO5VRBpogCQCPUPNYxMuNRjQas7E0NBYX53vi1wMMxfLNYr0X5yNOPhvxlUZceHM1mifaTc1VJbGz3WpOrzIMjh+ejwvVYxpxZ3is2GLHdJw61J7fuLZ+7c62y+eLe7PpeYohVS4nmuWxHI8ztdA4c6IZq2++nF0ZZTAIkgDwCC3d7DQbT8Sde0U8HG5WU1tbjeW302gsx/0ioE2/sxxx+EhvJXBDk3Hm2FDtuYtn/9p8scWHZSJm34wY+1K6f/L8XDx7dDUWXtdAvt8JkgCw7zVjeKgeRAtX7hdx9OGZfn0hVo8+WzVlT37heAzdu6EaeQAIkgCw7y3F8upQDD+ZJkvnj8RwGn0orpyKG/eG4vgX5mL8ZMT81ybSAvYzQRIA9oK3l2O1dp/h5Pyzsd1G761Nx623VqP5xW6HmJkv1e+R3J6qKf3o6Ka/dVg2l8fJsWiuLsQt1cgDQZAEgL3gyql4ubzP8HK7R/TFWNiw08xmur22x4sAOrS2nc7vPpYdZmbfHYup1ON6dLl+j2St1/bZIr4OdR/X87uX50Zi9l4zxtOydT21r9yKhWKj9Xsx2d8aT51+rpXGt+WN29fT2AArf4T18nDcaIyEwjv7gnOagVMGl6kYvtmIkXNpFoOv/MmfLy7HBb9DuXM7vI4X+S2N7a6DGSQBgIeo/cVgbGg15l/M/zF0tm+vBElN2wDAh9T5HUoh8qARJAEAyCJIAgCQRZAEACCLIAkAQBZBEgCALIIkAABZBEkAALIIkgAAZBEkAQDIcjCDZPnvWbYWo/3P2MM+4Jxm4JT/pF4rFq+mSTjoTjwfL116IZ5Ok4NCRRIAgCyCJAB729XFaC2pt8NeJEgCsDeVAbLVitaJO9FoTqSZwF4iSAKwp0zOr7QD5BeX40KjIUTCHiZIArB3nJ+Li8cW2gHy0KmYTrOBvanx1OnnWml8W964fT2NDbCyh+vl4bjRGAnfc9kXnNMMnLLX9lQM32zEyLk0KykrklMnhyJW5+PCRmHymRfi0rHH08QHcf+br8Rrd9NkYfT5l+L0kcfS1HuxcOnV+HqaKj14+Wg8/9LpWFv8/kJc+mrP2lssfzpeuHQ81vbu/u145bU7aaq0xfItjs2x79NjL5W9tj//qVjs2+/NFPktje0uQTLNgoHmnGbgbB4k15T3SJ5tRtyb1bzN/jegQVLTNgB707mRaJRN3HdH9dqGPUqQBGBvKwOliiTsSYIkAABZDuY9kgAAA8w9kgAADDRBEgCALIIkAABZBEkAALIIkgAAZBEkAQDIIkgCAJBFkAQAIIsgCQBAFkESAIAsgiQAAFkOZpA8PxcrrcWYSZMw8JzTDJzJmFtpxeLVNAkH3YBex1UkAQDIIkgCAJBFkAQAIIsgCQBAFkESAIAsgiQAAFkESQAAsgiSAABkESQBAMgiSAIAkKXx1OnnWml8W964fT2NAQCwG4r8lsZ2l4okAABZBEkAALIIkgAAZBEkAQDIIkgCAJBFkAQAIIsgCQBAFkESAIAsgiQAAFkESQAAshzMIHl+LlZaizGTJmHgOacZOJMxt9KKxatpEg66Ab2Oq0gCwJ4yE4uthxCyq2CyEnPn03QK761i251hZX4yLXv0ZpaKfVjy9XfQCZIAsKdMxEijESPn0uRDMrM0FWPvzkaj2HZ7uBALx6aEOT4UQRIAPnL1KmNvs35Zmasqg1cXe6qF6yqS1fLFmJtfWXtMf0WxqvJ11v9CmlmZidGjEUt3J9J0aTpOHSoCZbOcl/Zpvqxipm2szBVze9W3v355X8WzP6BWFdLuukfSbAabIAkAH7mJuHMvYviJMno1Y3io+P8TZdAqA95qLLw+HXFuZK1SOL9arbSBZhyPl9uPu7YUQycvrjVdTxYBc/zwfFxIFcc7w2NRPE2yFMvFNptnH3wPXvNYxMtp/dl3x2KqFgbLEDke3Ypm7/IyRE7F8bcupOXFMRwerwXdIkhfHovla+11G1+JOF4EWwafIAkAj8BSkeSGhpsRV0dj+M35WDp8JCbPH4nhWI77V9KDtrQUN8aK0Fk6d6eYGorhJ8uJyThzbCiWbp6KtDQmvjYf3Tyaqo/XIsY7VcFi6K9orlv/6LMpqLYD7/zXuhXN9vLRdjA9fyaOD9X2rXy+m8XeHTvTrloWx9xcnY/ZTnP9lVNxowjWDD5BEgAegenXF2K1CI8zTxTR8Z1bRXwcjuaTwzG0ulwEwg+rrHKuxvLbabJ05X7xHH3Wqp7lMBvLJ6c273BTX78KvEMxdrkbQluXaxXP8jiKfaiH1NbZIjQnk8Uxx7v310JqqQzWDD5BEgAehTKYDR2PZ49FEfim49ZbEaMnhmP1rVs9AStP2XTdqU4mVfhrK5u919/TOBGzb6Yq6UZq67dD5VLMroXQzjBSbKXw9nKsrnab1deGQ+0K5/Q7RSQtK7DlY5Nm2b7PwBMkAeCRaIe9oViIW1fKcFWEqaNDsfzOh4+RZVPyrbdWo/nFblic+VK3YlhVQ4d673ksm6vHTw71dMBZt/69G3GqanYv7/Fsxnht/Sqcdn738Mqt4qjG4mKtull1zOmE17IZvnj+8U4HovNz8ax7JPcFQRIAHonpuP9u8Z9OE29ZxSv+t9YcvdZreyrGys44Z1MT8Qa9pzcyPXao3QEmNS2PLtfukbxyKg6lDjBrTc+t8YhrvT8ztPRWxMW0vOq4U/XobptoNmI2uutPHVuIC52KZHFEpw6lnxPqrF92zEkVyTKIjrw4H8OdY/pyxIJ7JPeFxlOnn2ul8W154/b1NDbAyp8guDwcN9Y+ADDgnNMMnHYv3+GbD//3Esnh/dh1O7yOF/ktje2ugxkkAYAaQXLQ7JUgqWkbAA689s8DCZHslCAJAEAWQRIAgCyCJAAAWQRJAACyCJIAAGQRJAEAyCJIAgCQRZAEACCLIAkAQBZBEgCALAczSJb/MHprMWbSJAw85zQDp/y3nVuxeDVNwkF34vl46dIL8XSaHBQqkgAAZBEkAdjbri5Ga0m9HfYiQRKAvakMkK1WtE7ciUZzIs0E9hJBEoA9ZXJ+pR0gv7gcFxoNIRL2MEESgL3j/FxcPLbQDpCHTsV0mg3sTY2nTj/XSuPb8sbt62lsgJU9XC8Px43GSPiey77gnGbglL22p2L4ZiNGzqVZSVmRnDo5FLE6Hxc2CpPPvBCXjj2eJj6I+998JV67myYLo8+/FKePPJam3ouFS6/G19NU6cHLR+P5l07H2uL3F+LSV3vW3mL50/HCpeOxtnf3b8crr91JU6Utlm9xbI59nx57qey1/flPxWLffm+myG9pbHcJkmkWDDTnNANn8yC5prxH8mwz4t6s5m32vwENkpq2Adibzo1Eo2zivjuq1zbsUYIkAHtbGShVJGFPEiQBAMhyMO+RBAAYYO6RBABgoAmSAABkESQBAMgiSAIAkEWQBAAgiyAJAEAWQRIAgCyCJAAAWQRJAACyCJIAAGQ5mEHy/FystBZjJk3CwHNOM3AmY26lFYtX0yQcdAN6HVeRBAAgiyAJAEAWQRIAgCyCJAAAWQRJAACyCJIAAGQRJAEAyCJIAgCQRZAEACCLIAkAQJbGU6efa6XxbXnj9vU0BgDAbijyWxrbXSqSAABkESQBAMgiSAIAkEWQBAAgiyAJAEAWQRIAgCyCJAAAWQRJAACyCJIAAGQRJAEAyCJIAgCQ5WAGyfNzsdJajJk0CQPPOc3AmYy5lVYsXk2TcNAN6HVcRRIA9qMf+Rtx5NU78cM/kqY7Nptf+NifvxP//n95IU1trHrMV/5GfCxNc7AJkgBwkPyzvxT3XxiNf/XP0vQO/dv/aTT+8Zf/UvzbNM3BJkgCwCNzJn74K2/Hv/9qZ/h78cm0pPITf6+2rK9qWC37e/HDZUUwPebInz+TFrZ98r/srPt2DP94mplUlcS0rH/bnWUjf+bTEUef7z5urfLYt98bViQvxHBneTH07lt72fCfL6uhD9oGg0aQBIBHogxjfz3+6HuvxT9+4cn28IsRn+uEyTIo/uwfjX/x1zvL/kX80b/S3wTdjB+Kl9Pypfj0n7m4trwMg597/FuxmLb924d/KopYuKaqJFbLXov30ryOzrLFX/5OxL3a/q1VHm/Fv/pymlc873plUHw+Hvvlv5LWfS0++DN/fV3QffzJiH+elr/3mZ+KP9a3nMEjSALAo/Aj/0H80GeW4p/+d1NpRuFX/6MiVP1H8bvF6CePN+M7v/xyt8m5WPZP7306fujH62FrKX7zf7rVHv3VXysC4afj43+snDgTf/DJT8d73+w2Of/uL30rilj4aPzEn47Hf+tb8c87+xZTsVwG3Sf/g56qY3f/puK370V8+vBINcXgEiQB4FH4Y5+NT//W+/F7abLXmXjs8TRa83vvfmebYWskPv6Z78R3/3maLP2z/zM+SKMftY/94T+axmr++fvxnc98Nn4wTbI/CZIA8ChsFKyqHtRl0/at+KC/vbnwg4c/Hd95dzFNPchifPe3OtXJ5Ef+eDyWRj9q//Zf/os0VvPA4Mx+IUgCwKPwz/6X+O3fasbnaj+v88lnfio+fe/Xqqbt313oveexvGfyc0e/E7/9/+00Fz/Irfj/vf2dePzz3Q4s1bbT+HZVgfDon+7tALQdZTN7zz2PF2L4Z5vxnbf/F7279zlBEgAeibLDyl+Jf/F4t1f05+K1+MedeybL+yWrDjapV3PV8Wb7P9NTdpj5p+/9VIykbf/Qu733SHZ7bT8fjxcRc+156r8bWd2XWYTdtI0Ne20XATGK0Nh5nuGfKJdPxXLqYNN5jrLjzf21eybZrxpPnX6ulca35Y3b19PYACt/Pf7ycNxojMREmgUDzTnNwCn/ZZupGL7ZiJFzaRYcZDu8jhf5LY3troMZJAEABtheCZKatgEAyCJIAgCQRZAEACCLIAkAQBZBEgCALIIkAABZBEkAALIIkgAAZBEkAQDIIkgCAJDlYAbJ8t+zbC3GTJqEgeecZuCU/9Z2Kxavpkk46E48Hy9deiGeTpODQkUSAIAsgiQAe9vVxWgtqbfDXiRIArA3lQGy1YrWiTvRaE6kmcBeIkgCsKdMzq+0A+QXl+NCoyFEwh4mSAKwd5yfi4vHFtoB8tCpmE6zgb2p8dTp51ppfFveuH09jQ2wsofr5eG40RgJ33PZF5zTDJyy1/ZUDN9sxMi5NCspK5JTJ4ciVufjwkZh8pkX4tKxx9PEB3H/m6/Ea3fTZGH0+Zfi9JHH0tR7sXDp1fh6mio9ePloPP/S6Vhb/P5CXPpqz9pbLH86Xrh0PNb27v7teOW1O2mqtMXyLY7Nse/TYy+VvbY//6lY7NvvzRT5LY3tLkEyzYKB5pxm4GweJNeU90iebUbcm9W8zf43oEFS0zYAe9O5kWiUTdx3R/Xahj1KkARgbysDpYok7EmCJAAAWQ7mPZIAAAPMPZIAAAw0QRIAgCyCJAAAWQRJAACyCJIAAGQRJAEAyCJIAgCQRZAEACCLIAkAQBZBEgCALIIkAABZDmaQPD8XK63FmEmTMPCc0wycyZhbacXi1TQJB92AXsdVJAEAyCJIAgCQRZAEACCLIAkAQBZBEgCALIIkAABZBEkAALIIkgAAZBEkAQDIIkgCAJCl8dTp51ppfFveuH09jQEAsBuK/JbGdpeKJAAAWQRJAACyCJIAAGQRJAEAyCJIAgCQRZAEACCLIAkAQBZBEgCALIIkAABZBEkAALIczCB5fi5WWosxkyZh4Dmn2XcmY26lFYtX0yQcdHv0Oq8iCey6yfmVaLVaadg/gbg6rqUNjubqYu14c495JhZbKzF3Pk0C7AJBEthdxbfsiyeXY7bRiEY1jMREWrS/LXWP+VrEeBEoVd+AQSNIArujU5W7PBZD0ayC1PrqXFl168xvxcr8ZJrfbvbszF+8WptemSuWJlVTUP1xaX5HX2Wwu/22maXusvVVw959q4b03J0K69TJoYij4+uWr3NuJC68uRrNL26+79196zzvePGqDcXY5e5j6sfXW+VVuQQ+GoIksDuK8NSuxi1FrM7HhXUVyTIwjcfwmxfS/NlYPjmVAtV0nDpUzrsQ86sRzbMXI76S1j90qlhaKIPY5eOx8GKa/+J8DJ+tBaoyRJ4djvnO8mJbC8c622+HyPHD3f2avVeE3bVm6jK41vet3P5szH6l/dzTY4eqeWU4jHuz3cd09m0D068vxOrQ8ThT7l+172OxfK2z7fmIkxfTvk/ESLW92ViK1dr+N2LkXLm8HSKnalXeC29GjH15kxAL8CEIksDedHU0mkXAfHmsE72KAFWEzqFjZ9YFotU3X45TV9JEMvmF4zF070Z3/pVTcePeUBz/QgqKJ5p967XD6aH0fBPNIoTVgt/SchEKDx/ZPIxdmYiJvn3YkSv3YzmNlvt6qBYM28uGYvjJNL2FdpDt3iIw/U6x5aHhaKZpgIdFkAT2pMknhtNYzdvLsbpBIFp+Z32drznc16xcDONH08IiDh45vPF6PWrNy1Uz9ZoydLYrpN3tf8hOQuePRP8Rd5vWy2bsnao1vZ8VIYGPhiAJ7ElVFa3fk8MxtLocS2nyQcoK4mq96TkN7YrjdNx/N2L4id76Yhnc6k3brS9HvJzWq5qpaybPL6Um5s7y4Rj/EGGyqqCuLsStsqqZAuzo3c72y2bs7WvfHzkadzr7V94+APARECSBvencnVgaGouL9U4mZ5ux+tatTe8zrCvvOezeV1hqV+g6QXHi7lIM1ZcX4e3Zo6ux8Hq59ZkYPVqE0Zudpu3JOHOsVpG8uhhTl6fW/7RPX8itwvDR0a3DZbm9k0Nrz9cOlfMx22naLpv502jXUiyvdpvqu9r7uvrm7FrTdtmMD/BRECSB3dHpMV02uxaBcSo1w3Z7J5edSurNx+3OLe2KYqeX9lSMFfmueba9bk/zcnmf4YsLcXytV/N4xLXuPZBVZ59ry91ez1XHnEPpnsn2/Zjd7V6MuDkfq+V+luGx6ig0G0u1pvOqc0t/Z5ricVUnnfSY3l7btflno+oY07kncnrs5ZiP7mvSOnGn2E55nPXe19Nx6itlJ5xu83q71/b6+aN3y4pm8Xyb9RoHyNR46vRzrTS+LW/cvp7GBljVI3I4bhyY36tj33NOs++UXxamYvhmrdMRHGR91/kiv7Xn77KDGSQBAAbYXgmSmrYBAMgiSAIAkEWQBAAgiyAJAEAWQRIAgCyCJAAAWQRJAACyCJIAAGQRJAEAyCJIAgCQRZAEACDLwQyS5T983lqMmTQJA885zcAZjedfuhQvPJMm4aA78Xy8dOmFeDpNDgoVSQAAsgiScMDMLLVi8WqaAIAPQZCEA6IMkK1WK0bvNmLkXJoJAB+CIAn72mTMrbQD5LPLF6LRECIBeHgESdjHJucvxvG32gHy0Nh0mgsAD0fjqdPPtdL4trxx+3oaG2BlD9fLw3GjMRITaRYMtE3P6bIiORVjQxGrb17YMEyOPv9SnD7yWJp6LxYuvRpfT1OlBy8ve96ejrXF7y/Epa/2rL3F8qfjhUvH4/E09cH92/HKa3fSVGmL5c+8EJeOrS2N+998JV67myZLWyx37Lt17KX2Yz61dCle/aU0Cw6ystf25z8Vi32fxc0U+S2N7S5BMs2CgbaNc7q8R3L8aMTSNc3b7AWCJPQY0CCpaRsOiIlmo2rivnNCr20AHg5BEg6YMlCqSALwMAiSAABkOZj3SAIADDD3SAIAMNAESQAAsgiSAABkESQBAMgiSAIAkEWQBAAgiyAJAEAWQRIAgCyCJAAAWQRJAACyHMwgeX4uVlqLMZMm4eGYicVWK1orczGZ5rRNxtzKRvMfIuc0A6f9uVi8mibhoBvQ67iK5C6anF/ZMFzMLBWhY+khn0pXF6NVhpw0PNyLdwpKte1/NM+zi7bxAZ9ZGo/mvdloHDoV02le23ScOnQh5mMsLs5/ZFESAB45QXIPmmg2otGcSFMPybmRaDSK7TaKQLOa5j1kq29eSM/RHUbOpYX7XRE0nz26GvNf2+x9K8LkzaUYOjmuagjAviFIPlKp6bMaFuNMmttWX1YMG1Ukq6pY7TH1x5UVx5W5mCurmWnZTquBVSV0bdu16lt63t7tpSrktiunfVXL2npVZbY2vzu9EnPn04MesH6l/7XpW97zHD3bbes99tpjOtu9PBZD0Yzx/uXJ5BeOx9DqQty6kmZs5NydWCq2MaopD4B9QpB8ZMogNB7Da1W7OzF8cigtK03ESKriXXhzo5JhETSLMLN8rVbxuzYbs/XK5dBYDN9Ny16cj+Gz6wPTZsogNX54Pi6kbc/eK0JTJ4xdORUvF/vUPFELZ+fPxPGhpd7n31R57FMx9u5s2vcLMX94fC3sTY8dquZXx310PC7Gy+lxh+JUFcza6x9/q/Patddf6TQTl2Gv77WZje72yxA5dXI5ZtOyC29GjH25e0tBubx+7OX2Z6+93H7u4tgPlfOK13O1iIGdbXT3ra05XLyX797va9LutxTLxSEOP6F5G4D9QZB8VFLwujHWiRoTMbthYNyBcxPFVmpW52O205RcBKAb94Zi7Eu9lbnNVM3ptXv7lsrEc/jIWtiaHrsRS0efXQumM18ai6F7d3qef+jkVK2i16oFvf7QOR2nvlIEs6Oj65t5i2N4ee01Sta9dqmZ+NiZav+qauC92Z5m9PrtAe2gOrK2r9PvLBc7OxzNNL3edEyce3Ak7DUZRw6n0W0YGt78mQFgkAiSj8qTwzG0uhxLabJUBZptm4iRqsrYDWpb9QKuwuBO1JqHp3qqpaWJuLMWTGdidIP7AfvvkTzUCX7lsbfHuq7cj+UYjiP9FdONqnrV+vVm5WI42w1jZTVwdbn+ym6kdutAbd1SGTRn3x2Lqdr2d3ZbwHTcfzeNbsPW+woAg0GQfFTeXo7VvirY5BPDaWx7JuNWu5k1DVX4eUCYrJpbt6m6R/DLES+nbW/UvD7xtXYVcW7+2Wjeu9HTtPtA5bGn0TXnjxQxcjnub2cb5fqr9abnNKQKahmY+6t81T2RtabtVms07nTWu9YX5M5PxlJZwewsT4F9J2Gyv4K7sWaUb8nyOzupdgLA3iVIPipXbsXCajOeXfv5l5kYX1f121x1n9/lqW5zcUe9gjc0FuOd8HN+q17EdWWFsQhDNztN25Nx5tgG+1Y1lzdjrNjvpbvb2W6Sjn3tnsti+3NfXt80vqly/b6fzqmCbwrR068vFAF3vBb82q9tex/bx7L65uzac82cqIfO8t7TqZiqdy6qrMby22m0VFVQN+8oU+3D0PE486B7Uq+OFltYijsHpSc7APueIPnIlL8lOBvLa/cRjsZyT9Wv2/RaNSsXwaj9uHaHmeo+vxfnI2r3IVYdROqdXVbnY/lEe1nZy3j5Wq1DyNrvSE7FWLH5ZqeJvApjEzFybak7r3Ux4uZ8EYzGYmot/LVN3F2qnmftXsxtSb+jWHaw6exD2fEm7Xu7Yth/3PWKYHv9hWO1Y4/a7zWWHWJ6mv3HI651fnqofT9m/XUbvTtb9Z4e7xx7I3UuSsvXvXaV/teoryPTlvekFuH5i82eQAsAg67x1OnnWml8W964fT2NDbCql+9w3Kh1wBh4ZVD84nJcWPdj2A9Tu/f08M0D9PuQO1J+GRiPZtkM3/M+pF7r0T//IdqP5zT7nOsJ9NjhdbzIb2lsdx3MILkffdRBstx+2Uml/JdbtvWTPwDAR2WvBElN2/tF+S/XfJTVyM6/jCNEAgCJIAkAQBZBEgCALIIkAABZBEkAALIIkgAAZBEkAQDIIkgCAJBFkAQAIIsgCQBAFkESAIAsBzNIlv8wemsxZtIkDLwTz8dLl16Ip9Mk7H2j8fxLl+KFZ9IkHHQDeh1XkQQAIIsguYWZpVYsXk0TAACsESQ3UQbIVqsVo3cbMXIuzQQAYI0g2WMy5lbaAfLZ5QvRaAiRAACbESRrJucvxvG32gHy0Nh0mgsAwEYaT51+rpXGt+WN29fT2AAre21fHo4bjZGYSLPayorkVIwNRay+eWHDMDn6/Etx+shjaeq9WLj0anw9TbV7IZ6OtcXvL8Slr3aXbr386Xjh0vF4PE19cP92vPLanTRV2mL5My/EpWNrS+P+N1+J1+6mydIWyx98bI59zx57qezt9/lPxWLffsPe1f5cfGrpUrz6S2kWHGQ7vI4X+S2N7S5BMs3qV94jOX40Yuma5m0GgCDJwBEkoceABklN25uYaDaqJu47J/TaBgDYiCC5hTJQqkgCAKwnSAIAkOVg3iMJADDA3CMJAMBAEyQBAMgiSAIAkEWQBAAgiyAJAEAWQRIAgCyCJAAAWQRJAACyCJIAAGQRJAEAyHIwg+T5uVhpLcZMmoSB55xm4EzG3EorFq+mSTjoBvQ6riIJAEAWQRIAgCyCJAAAWQRJAACyCJIAAGQRJAEAyCJIAgCQRZAEACCLIAkAQBZBEgCALI2nTj/XSuPb8sbt62kMAIDdUOS3NLa7VCQBAMgiSAIAkEWQBAAgiyAJAEAWQRIAgCyCJAAAWQRJAACyCJIAAGQRJAEAyCJIAgCQRZAEACCLIAkAQBZBEgCALIIkAABZBEkAALIIkgAAZBEkAQDIIkgCAJBFkAQAIEt2kPzBH/zB+P7v//40BQBwcJWZqMxGB03jqdPPtdL4tvzDX5uL0dGfih/7sT8dR48247HHPpGWAAAcTB988G/i3r2l+If/8Nfizp1vxerqSlry0SjyWxrbXd//x/+dkUtpfEutVis+9+/8SIyP/4U4fHg4PvaxH0hLAAAOrjITldno+PEfi/fffy9+/df/97Tk4fv+7/9YPHHk34tGo5Hm7J4dNW2XO/zjP/4TaQoAgH4/9mM/Hh//+MfT1MP3iU98ck+EyNKO75E88sc/l8YAAOj3Iz/yo8X/f3RB74c/cziN7b4dB8l/828+iO/7Pp29AQA2UjZtf/e7H6Sph+uxxz4Z/48/9IfT1O7bcSL8P/6P+/Hxj39Cj20AgA18+9v/II09XH/whw7F5/7E/yuGhj6b5uy+HXW2Kf3mb/5m/O7vfhCPfeITMfRDPxStVrsTDgDAQfZP/sn/Htev/49x+/Y34nvf+16a++F96lN/MP7Q4T8WP/rEvxuffXw4zd0bdvzzP/3+7//796qm7rIH0cNSVjs/9rGPxXe/+900BwDg4Pn93/+38YM/8ANFYvu+Yvz309y940Pf7PgDP1D+MPnDC5Gl8oUSIgGAg67MWL//vdaeDJElvWYAAMgiSAIAkEWQBAAgiyAJAECGiP8/2yw3lts04eAAAAAASUVORK5CYII=;" vertex="1" parent="1">
          <mxGeometry x="70" y="640" width="323.61" height="390" as="geometry" />
        </mxCell>
      </root>
    </mxGraphModel>
  </diagram>
</mxfile>
